<?xml version="1.0" standalone="no"?>
<!DOCTYPE svg PUBLIC "-//W3C//DTD SVG 20010904//EN"
 "http://www.w3.org/TR/2001/REC-SVG-20010904/DTD/svg10.dtd">
<svg version="1.0" xmlns="http://www.w3.org/2000/svg"
 width="1500.000000pt" height="1500.000000pt" viewBox="0 0 1500.000000 1500.000000"
 preserveAspectRatio="xMidYMid meet">
<metadata>
Created by potrace 1.14, written by Peter Selinger 2001-2017
</metadata>
<g transform="translate(0.000000,1500.000000) scale(0.100000,-0.100000)"
fill="#000000" stroke="none">
<path d="M10038 14414 c-2 -1 -32 -5 -68 -9 -36 -3 -78 -9 -95 -11 -16 -3 -42
-6 -57 -6 -16 0 -28 -4 -28 -8 0 -5 -8 -7 -17 -5 -10 1 -22 0 -28 -3 -5 -3
-16 -7 -25 -8 -14 -2 -52 -11 -75 -18 -5 -2 -26 -9 -45 -17 -19 -7 -38 -12
-42 -11 -5 1 -8 -3 -8 -9 0 -6 -6 -9 -12 -7 -7 3 -19 -2 -27 -9 -7 -8 -21 -11
-29 -8 -9 3 -13 3 -9 -1 3 -4 -15 -18 -41 -31 -26 -13 -53 -31 -59 -40 -7 -9
-13 -13 -13 -9 0 4 -27 -14 -60 -40 -33 -26 -60 -51 -60 -56 0 -5 -4 -7 -9 -3
-6 3 -14 -3 -20 -12 -6 -10 -11 -15 -11 -11 0 4 -13 -5 -28 -20 -15 -15 -26
-31 -23 -36 2 -5 -1 -6 -6 -3 -6 4 -50 -32 -99 -78 -49 -47 -93 -85 -98 -85
-5 0 -6 -3 -2 -7 3 -4 -8 -22 -26 -40 -17 -18 -29 -33 -25 -33 3 0 -6 -13 -21
-29 -26 -27 -49 -61 -82 -123 -9 -16 -20 -25 -25 -21 -4 4 -5 3 -2 -3 3 -6 -7
-36 -23 -66 -16 -30 -26 -58 -23 -62 3 -3 1 -6 -6 -6 -8 0 -11 -7 -7 -15 3 -8
1 -15 -4 -15 -6 0 -10 -7 -10 -15 0 -8 -4 -15 -9 -15 -6 0 -8 -9 -6 -20 2 -11
0 -20 -4 -20 -9 0 -21 -49 -22 -82 0 -10 -4 -18 -7 -18 -4 0 -9 -14 -10 -32
-2 -17 -7 -37 -12 -43 -5 -7 -7 -15 -3 -18 3 -4 0 -14 -8 -24 -9 -11 -10 -14
-1 -9 13 8 17 -6 5 -18 -4 -3 -8 -14 -9 -24 -1 -9 -5 -44 -9 -77 -4 -33 -8
-78 -9 -100 -1 -22 -6 -46 -10 -54 -7 -10 -5 -12 3 -6 10 6 11 3 2 -13 -7 -14
-8 -23 -1 -27 6 -4 7 -11 4 -17 -11 -17 -10 -68 0 -68 5 0 3 -6 -3 -13 -6 -8
-9 -16 -7 -18 8 -10 14 -79 6 -74 -5 3 -5 -9 0 -27 6 -20 6 -36 -1 -44 -7 -8
-7 -14 1 -19 6 -4 9 -12 7 -18 -2 -7 0 -22 4 -34 5 -14 4 -23 -4 -27 -7 -2 -7
-5 -1 -5 5 -1 9 -15 8 -31 -1 -17 1 -32 5 -34 3 -3 6 -23 5 -45 0 -23 3 -41 8
-41 4 0 8 -5 8 -11 0 -5 -5 -7 -11 -3 -8 4 -8 0 0 -15 7 -12 10 -25 7 -30 -3
-4 -1 -22 4 -40 6 -22 5 -31 -3 -31 -8 0 -7 -3 2 -9 9 -6 12 -22 9 -49 -2 -22
0 -38 4 -36 4 3 6 -9 4 -25 -2 -17 -1 -33 2 -36 4 -3 7 -16 8 -28 1 -12 5 -47
9 -77 3 -30 7 -71 8 -90 2 -19 5 -39 8 -45 4 -5 5 -18 4 -27 -2 -10 1 -18 7
-18 6 0 5 -6 -2 -15 -8 -9 -8 -15 -2 -15 6 0 10 -8 10 -17 0 -10 2 -31 6 -48
3 -16 9 -49 12 -71 2 -23 7 -53 9 -65 3 -13 8 -44 11 -69 9 -63 12 -79 19 -90
3 -6 0 -10 -7 -10 -8 0 -9 -3 -3 -8 11 -7 19 -54 18 -109 0 -18 3 -33 7 -33 3
0 7 -12 8 -27 0 -16 3 -46 6 -68 3 -22 9 -62 12 -90 4 -27 7 -60 7 -72 1 -13
5 -23 10 -23 5 0 4 -6 -2 -13 -6 -8 -8 -17 -4 -21 8 -8 15 -103 17 -223 0 -46
3 -83 6 -83 3 0 6 -32 6 -71 1 -44 -2 -66 -7 -58 -5 8 -9 10 -9 5 0 -5 -6 -3
-13 3 -8 6 -17 8 -20 4 -4 -3 -7 -2 -7 4 0 5 -7 10 -15 11 -8 1 -22 3 -30 4
-8 1 -15 5 -15 10 0 4 -3 7 -7 6 -5 -1 -21 4 -36 10 -16 7 -34 12 -40 12 -7 0
-20 7 -30 15 -11 7 -25 11 -33 8 -8 -3 -14 0 -14 6 0 6 -7 8 -15 5 -8 -4 -15
-2 -15 4 0 5 -11 8 -25 7 -14 -2 -25 1 -25 6 0 6 -4 7 -10 4 -5 -3 -10 -3 -10
2 0 4 -10 9 -22 9 -13 1 -52 9 -88 19 -36 9 -74 18 -85 20 -11 1 -20 3 -20 4
0 3 -56 12 -82 14 -13 0 -23 4 -23 7 0 4 -12 8 -27 8 -16 1 -44 4 -63 7 -46 8
-128 17 -162 18 -16 0 -28 4 -28 7 0 4 -7 7 -15 7 -8 0 -15 -4 -15 -9 0 -5 -8
-5 -17 0 -25 12 -126 16 -368 14 -287 -3 -345 -5 -345 -15 0 -4 -8 -3 -19 2
-10 6 -21 7 -25 4 -4 -4 -14 -8 -24 -9 -23 -4 -102 -14 -127 -17 -11 -2 -24
-5 -30 -8 -5 -3 -20 -4 -32 -3 -13 0 -23 -2 -23 -6 0 -5 -13 -7 -30 -6 -16 1
-30 -1 -30 -4 0 -4 -6 -7 -12 -7 -20 -1 -80 -11 -108 -18 -14 -4 -34 -8 -45
-10 -11 -2 -31 -7 -45 -10 -14 -3 -36 -8 -50 -11 -13 -3 -29 -9 -35 -13 -5 -5
-17 -8 -25 -8 -8 -1 -28 -4 -45 -8 -16 -3 -36 -7 -42 -7 -7 -1 -13 -5 -13 -9
0 -4 -9 -6 -20 -4 -11 2 -22 -1 -25 -6 -4 -5 -11 -7 -16 -4 -5 4 -9 0 -9 -7 0
-11 -2 -10 -9 0 -7 11 -9 10 -15 -3 -3 -9 -10 -14 -16 -10 -5 3 -23 -1 -40
-10 -16 -8 -31 -15 -32 -14 -8 2 -67 -16 -93 -29 -54 -27 -60 -29 -77 -26 -10
1 -16 -3 -15 -9 1 -7 -6 -11 -15 -9 -10 2 -18 -2 -18 -8 0 -5 -3 -9 -7 -8 -5
0 -28 -8 -53 -20 -24 -11 -48 -18 -54 -15 -5 3 -6 1 -2 -5 6 -11 -6 -16 -26
-13 -5 0 -8 -3 -8 -8 0 -8 -37 -24 -52 -22 -5 1 -8 -4 -8 -10 0 -5 -4 -7 -10
-4 -5 3 -10 2 -10 -3 0 -10 -58 -36 -72 -33 -5 0 -8 -4 -8 -9 0 -6 -7 -10 -15
-10 -7 0 -18 -6 -22 -14 -4 -8 -11 -15 -15 -16 -35 -8 -47 -14 -42 -21 3 -5
-1 -9 -9 -9 -7 0 -23 -9 -34 -19 -12 -11 -24 -17 -27 -14 -3 4 -6 1 -6 -5 0
-6 -9 -16 -19 -22 -17 -9 -19 -7 -16 10 2 11 0 20 -5 20 -5 0 -7 6 -4 14 3 8
1 23 -5 34 -7 13 -7 22 1 30 8 8 8 12 1 12 -5 0 -9 10 -9 23 1 12 0 26 -2 31
-3 5 -6 21 -8 35 -1 14 -5 42 -9 61 -4 19 -9 53 -10 75 -2 22 -4 40 -5 40 -3
0 -18 84 -25 140 -1 11 -4 20 -5 20 -1 0 -3 14 -5 30 -1 17 -3 30 -5 30 -2 0
-9 55 -12 105 -2 19 -6 37 -10 40 -4 3 -8 25 -9 48 -2 23 -6 42 -10 42 -4 0
-6 8 -4 18 1 9 -2 22 -7 29 -6 7 -5 14 2 18 7 5 8 11 1 19 -9 11 -23 63 -24
94 0 6 -3 12 -6 12 -3 0 -7 12 -8 28 -4 44 -8 67 -18 81 -6 10 -4 12 6 6 12
-7 12 -6 1 7 -7 9 -15 27 -18 39 -11 52 -17 85 -18 102 0 9 -4 17 -9 17 -5 0
-7 11 -5 25 3 14 1 25 -5 25 -6 0 -7 3 -4 7 4 3 3 11 -2 17 -5 6 -14 38 -21
71 -7 33 -17 66 -23 73 -5 7 -7 15 -4 19 4 3 1 15 -5 27 -7 11 -12 26 -13 31
0 6 -9 35 -20 65 -10 30 -20 57 -20 60 0 3 -6 15 -13 28 -7 12 -10 22 -6 22 3
0 1 7 -6 15 -6 8 -9 19 -5 25 3 5 1 10 -4 10 -6 0 -11 9 -11 19 0 11 -4 23
-10 26 -5 3 -10 15 -10 26 0 10 -5 19 -11 19 -5 0 -7 5 -4 10 3 6 1 10 -6 10
-7 0 -9 3 -6 7 4 3 1 13 -6 21 -10 13 -9 14 3 7 13 -7 13 -6 0 11 -26 34 -41
65 -35 74 4 6 2 10 -4 10 -5 0 -15 16 -22 35 -7 19 -17 35 -22 35 -4 0 -6 4
-3 9 4 5 1 11 -4 13 -10 3 -16 21 -19 51 -1 5 -5 6 -9 3 -5 -3 -19 17 -33 44
-13 26 -27 46 -30 44 -4 -2 -12 10 -19 26 -7 17 -19 30 -28 30 -8 0 -13 3 -9
6 7 8 -15 34 -100 118 -100 97 -121 116 -132 116 -5 0 -11 3 -13 8 -5 13 -91
72 -104 72 -7 0 -19 9 -27 20 -8 11 -17 17 -21 12 -4 -4 -14 2 -22 12 -8 11
-14 16 -14 12 0 -4 -10 0 -22 8 -12 9 -30 16 -40 16 -10 0 -18 4 -18 10 0 5
-3 9 -7 9 -20 -3 -34 2 -28 11 3 6 -1 7 -10 4 -9 -4 -25 2 -37 12 -14 13 -19
14 -13 4 6 -12 5 -13 -6 -2 -7 6 -21 12 -32 12 -10 0 -25 7 -34 15 -12 12 -18
13 -29 4 -8 -6 -14 -7 -14 -2 0 10 -3 11 -57 16 -17 2 -38 9 -46 16 -9 7 -18
8 -21 3 -3 -5 -18 -7 -33 -5 -44 8 -193 6 -248 -2 -27 -4 -59 -8 -70 -10 -11
-1 -20 -3 -20 -5 0 -1 -9 -3 -20 -5 -11 -2 -31 -6 -45 -10 -14 -4 -36 -9 -50
-12 -14 -3 -30 -10 -37 -15 -7 -5 -17 -7 -23 -3 -5 3 -10 1 -10 -4 0 -6 -9
-11 -19 -11 -11 0 -26 -6 -33 -13 -7 -8 -19 -12 -26 -9 -6 2 -12 -1 -12 -7 0
-6 -3 -10 -7 -9 -5 1 -21 -5 -38 -12 -16 -7 -33 -13 -37 -12 -5 1 -8 -2 -8 -8
0 -5 -15 -16 -34 -24 -18 -8 -37 -19 -40 -25 -4 -6 -11 -9 -16 -6 -5 3 -15 -4
-23 -15 -7 -11 -17 -17 -20 -13 -4 3 -7 1 -7 -5 0 -7 -5 -12 -11 -12 -16 0
-59 -36 -52 -44 3 -3 1 -6 -6 -6 -6 0 -26 -15 -44 -32 -17 -18 -35 -32 -39
-30 -4 1 -8 -4 -8 -12 0 -8 -9 -17 -20 -21 -11 -3 -19 -9 -17 -13 3 -10 -66
-77 -76 -74 -5 1 -6 -2 -2 -8 3 -6 -7 -24 -24 -40 -16 -17 -27 -30 -25 -30 2
0 -12 -16 -31 -35 -20 -19 -35 -35 -33 -37 6 -6 -29 -47 -35 -41 -4 3 -7 -1
-7 -10 0 -10 -9 -25 -20 -34 -11 -10 -20 -23 -20 -30 0 -7 -5 -13 -12 -13 -6
0 -9 -3 -5 -6 3 -4 1 -12 -6 -20 -22 -24 -32 -39 -46 -66 -8 -16 -18 -28 -23
-28 -5 0 -6 -4 -3 -10 3 -5 1 -10 -6 -10 -7 0 -9 -3 -6 -6 4 -4 -2 -19 -12
-33 -35 -49 -61 -102 -56 -112 4 -5 -1 -9 -10 -9 -9 0 -14 -4 -11 -9 3 -4 -1
-17 -9 -27 -8 -10 -15 -26 -15 -36 0 -9 -4 -18 -9 -20 -5 -1 -11 -12 -13 -23
-1 -11 -9 -26 -16 -33 -6 -7 -12 -22 -12 -33 0 -10 -5 -19 -11 -19 -5 0 -8 -4
-4 -9 3 -5 1 -12 -5 -16 -6 -4 -8 -11 -5 -16 4 -5 1 -9 -4 -9 -6 0 -11 -8 -11
-18 0 -10 -7 -27 -15 -38 -8 -12 -11 -24 -8 -28 3 -3 1 -6 -6 -6 -7 0 -9 -4
-6 -10 3 -5 0 -10 -7 -10 -9 0 -9 -3 2 -10 11 -7 11 -10 2 -10 -7 0 -10 -4 -7
-10 3 -5 1 -10 -6 -10 -7 0 -10 -3 -7 -6 4 -3 0 -21 -8 -40 -8 -19 -11 -34 -7
-34 5 0 3 -4 -4 -8 -6 -4 -14 -19 -16 -32 -4 -24 -9 -42 -28 -87 -6 -16 -5
-23 4 -23 9 0 8 -3 -1 -9 -8 -4 -13 -11 -13 -15 1 -3 1 -7 0 -8 -6 -21 -11
-48 -12 -70 -1 -16 -4 -28 -7 -28 -3 0 -7 -8 -7 -17 -4 -33 -11 -78 -13 -80
-1 -2 -4 -16 -5 -33 -1 -16 -4 -31 -5 -32 -1 -2 -4 -16 -5 -33 -2 -16 -4 -30
-5 -30 -1 0 -3 -11 -5 -25 -1 -14 -6 -33 -10 -42 -5 -12 -3 -18 6 -18 9 -1 7
-6 -5 -15 -11 -8 -15 -15 -8 -15 8 0 9 -8 4 -22 -5 -13 -8 -35 -7 -50 0 -16
-2 -28 -5 -28 -3 0 -6 -26 -8 -58 -3 -72 -7 -105 -13 -117 -3 -6 -5 -29 -5
-52 1 -24 -1 -43 -5 -43 -3 0 -5 -18 -4 -40 1 -22 -1 -40 -4 -40 -4 0 -8 -26
-10 -58 -5 -88 -6 -96 -14 -109 -5 -8 -3 -13 3 -13 6 0 8 -5 4 -12 -4 -6 -9
-43 -10 -82 -4 -103 -6 -270 -4 -276 6 -18 5 -50 -1 -50 -5 0 -6 -6 -3 -14 3
-8 7 -63 8 -123 1 -60 6 -115 10 -121 4 -7 3 -12 -3 -12 -6 0 -6 -11 -1 -29 4
-15 7 -49 6 -75 -1 -25 1 -46 4 -46 3 0 5 -12 4 -27 -1 -16 3 -34 9 -40 6 -9
6 -13 -3 -13 -9 0 -9 -4 -3 -12 6 -7 9 -21 8 -30 -2 -10 1 -21 6 -24 6 -3 5
-11 -2 -20 -6 -8 -7 -14 -2 -14 6 0 9 -10 9 -22 -1 -13 0 -27 3 -33 7 -12 10
-29 13 -72 1 -18 5 -33 8 -33 3 0 6 -10 7 -22 1 -34 9 -81 17 -99 4 -9 6 -20
5 -25 -1 -5 0 -11 1 -14 3 -10 11 -46 17 -80 3 -19 8 -37 12 -40 3 -3 7 -14 7
-25 2 -32 9 -59 17 -72 5 -7 6 -13 3 -13 -3 0 -1 -12 5 -27 10 -26 17 -58 21
-90 1 -7 4 -13 8 -13 3 0 7 -8 8 -17 4 -35 8 -53 15 -59 4 -4 7 -17 7 -29 0
-11 6 -27 13 -34 10 -11 9 -12 -3 -6 -12 7 -13 6 -3 -6 16 -20 43 -101 37
-111 -3 -4 0 -8 6 -8 6 0 9 -4 6 -9 -3 -5 1 -14 9 -21 8 -7 12 -16 9 -21 -2
-5 5 -29 16 -55 12 -25 22 -55 23 -65 1 -10 5 -19 10 -19 4 0 6 -4 2 -9 -3 -5
2 -16 11 -25 8 -9 12 -20 9 -26 -3 -5 -1 -10 5 -10 6 0 9 -4 6 -9 -3 -4 1 -17
9 -27 8 -10 15 -27 15 -36 0 -10 5 -18 10 -18 6 0 10 -6 10 -14 0 -8 16 -44
35 -80 19 -36 32 -66 27 -66 -4 0 1 -5 11 -11 9 -6 15 -14 12 -20 -4 -5 -2 -9
3 -9 5 0 12 -8 15 -17 3 -10 20 -40 36 -68 17 -27 38 -63 47 -80 9 -16 20 -32
23 -35 11 -9 111 -180 111 -190 0 -6 5 -10 10 -10 6 0 10 -5 10 -12 0 -6 11
-26 26 -45 14 -18 22 -33 18 -33 -4 0 3 -8 14 -19 12 -10 22 -23 22 -28 0 -6
8 -19 17 -31 39 -46 97 -132 99 -146 1 -9 -2 -18 -7 -22 -5 -3 -5 -12 1 -23 6
-12 5 -22 -1 -28 -8 -8 -7 -13 0 -17 8 -5 8 -13 0 -28 -8 -16 -8 -19 1 -13 9
6 9 2 1 -14 -9 -16 -9 -21 0 -21 7 0 8 -5 3 -12 -11 -16 -11 -39 -1 -55 5 -7
4 -13 0 -13 -10 0 -10 -50 0 -66 3 -6 3 -14 -1 -18 -11 -12 -9 -96 2 -96 8 0
8 -3 1 -8 -6 -4 -11 -25 -11 -47 0 -22 5 -43 11 -47 7 -5 6 -8 -1 -8 -12 0
-12 -28 -1 -47 4 -6 3 -14 -2 -17 -10 -7 -9 -25 2 -43 5 -7 4 -13 -2 -13 -10
0 -9 -19 2 -38 5 -6 4 -12 0 -12 -5 0 -9 -9 -9 -20 0 -11 5 -20 10 -20 6 0 5
-5 -2 -12 -7 -7 -8 -17 -1 -30 7 -13 6 -18 -2 -18 -8 0 -8 -4 1 -15 10 -12 10
-15 0 -15 -9 0 -9 -4 -2 -13 7 -8 7 -18 2 -27 -5 -8 -6 -19 -2 -24 9 -16 10
-46 0 -52 -4 -3 -5 -11 -1 -17 4 -7 8 -28 9 -47 1 -19 3 -51 5 -70 2 -19 0
-41 -5 -48 -4 -6 -3 -12 2 -12 5 0 8 -22 7 -50 -1 -28 2 -50 7 -50 5 0 4 -9
-2 -20 -6 -11 -7 -20 -2 -20 4 0 9 -14 10 -31 2 -22 -1 -28 -10 -23 -10 6 -10
5 -1 -7 7 -8 15 -37 17 -65 3 -27 8 -68 11 -91 8 -64 15 -125 19 -156 2 -15 6
-30 9 -33 3 -3 3 -13 0 -22 -5 -11 -3 -13 6 -7 10 6 11 3 2 -14 -7 -11 -8 -21
-3 -21 5 0 9 -6 9 -12 2 -43 13 -91 24 -104 9 -11 9 -14 -1 -14 -10 0 -10 -3
-1 -14 6 -8 11 -18 10 -22 -1 -5 0 -11 1 -14 1 -3 3 -12 5 -20 1 -8 10 -38 18
-67 8 -28 13 -54 10 -57 -4 -3 -2 -6 4 -6 10 0 12 -7 15 -55 1 -14 6 -25 10
-25 4 0 8 -9 8 -19 0 -11 5 -23 10 -26 6 -4 8 -11 4 -16 -3 -5 0 -16 6 -24 7
-8 9 -15 5 -15 -4 0 -3 -6 2 -12 5 -7 9 -20 8 -28 0 -8 5 -21 12 -28 7 -8 11
-17 8 -22 -3 -5 -1 -11 4 -15 6 -3 8 -12 4 -20 -3 -8 0 -15 6 -15 6 0 11 -11
11 -24 0 -14 5 -28 10 -31 6 -3 10 -15 10 -26 0 -10 4 -19 8 -19 5 0 9 -6 10
-12 2 -25 27 -88 34 -88 5 0 8 -11 8 -25 0 -14 4 -25 9 -25 4 0 14 -20 21 -45
7 -25 16 -45 20 -45 4 0 11 -10 15 -23 4 -12 8 -24 10 -27 1 -3 8 -20 16 -37
7 -18 17 -33 21 -33 4 0 8 -8 8 -19 0 -10 7 -24 15 -31 8 -7 15 -21 15 -31 0
-11 5 -19 11 -19 5 0 7 -5 4 -10 -3 -6 -3 -10 2 -10 4 0 13 -10 19 -23 23 -48
50 -91 67 -109 9 -10 17 -25 17 -33 0 -9 7 -18 15 -21 8 -4 12 -10 9 -15 -3
-5 0 -9 6 -9 6 0 8 -4 5 -10 -3 -5 -1 -10 4 -10 6 0 11 -7 11 -16 0 -8 5 -12
10 -9 5 3 10 0 10 -8 0 -8 10 -26 23 -40 12 -14 33 -40 47 -58 30 -38 69 -82
113 -128 17 -19 31 -39 29 -44 -1 -4 2 -6 8 -2 5 3 10 -1 10 -9 0 -9 4 -15 8
-14 11 4 62 -49 55 -56 -6 -6 13 -10 30 -7 5 1 6 -2 4 -6 -6 -10 19 -34 27
-26 3 4 6 -1 6 -10 0 -10 4 -17 8 -17 8 0 50 -34 99 -79 12 -12 26 -21 30 -21
4 0 23 -14 41 -31 17 -16 32 -27 32 -24 0 4 7 0 15 -7 33 -30 45 -38 55 -38 5
0 10 -4 10 -10 0 -5 7 -10 15 -10 8 0 15 -5 15 -12 0 -6 3 -9 6 -5 3 3 15 -3
27 -13 11 -11 24 -17 29 -14 4 3 8 0 8 -5 0 -6 7 -11 15 -11 8 0 15 -4 15 -10
0 -5 7 -10 15 -10 8 0 24 -10 36 -23 12 -12 19 -16 14 -9 -6 11 -3 11 16 0 13
-7 26 -15 29 -18 3 -3 28 -16 55 -30 28 -14 52 -28 53 -33 2 -4 8 -5 13 -1 5
3 9 0 9 -5 0 -6 7 -11 16 -11 18 0 77 -31 82 -43 2 -4 11 -7 20 -7 10 0 25 -7
35 -15 11 -7 25 -11 33 -8 8 3 14 -1 14 -11 0 -10 6 -13 15 -10 8 4 15 1 15
-5 0 -6 3 -10 8 -10 18 3 33 -2 28 -9 -2 -4 7 -8 22 -7 15 0 36 -8 46 -17 15
-14 22 -15 28 -6 6 10 8 10 8 0 0 -7 4 -11 9 -7 5 3 12 1 16 -5 3 -5 15 -10
26 -10 10 0 19 -5 19 -10 0 -6 3 -9 8 -8 20 5 91 -15 85 -24 -3 -6 -2 -8 4 -5
6 4 45 -4 87 -17 42 -13 79 -25 81 -25 3 -1 10 -3 17 -5 7 -2 29 -8 48 -14 19
-6 61 -16 93 -24 31 -7 57 -15 57 -18 0 -3 12 -7 26 -8 15 -1 33 -7 40 -13 11
-9 14 -8 14 1 0 9 3 10 13 1 8 -6 17 -8 20 -4 4 3 7 1 7 -6 0 -7 3 -10 8 -8 4
3 41 -3 82 -14 41 -10 89 -21 105 -23 17 -3 45 -10 64 -15 19 -6 37 -8 42 -6
4 3 10 2 13 -3 2 -4 22 -9 42 -10 21 -2 41 -6 44 -10 3 -4 19 -7 35 -6 17 0
35 -2 40 -6 6 -4 27 -6 48 -6 20 1 37 -2 37 -6 0 -3 15 -6 33 -6 17 0 34 -1
37 -2 3 -1 30 -3 60 -5 30 -2 55 -4 55 -5 0 -1 98 -10 160 -13 22 -2 46 -6 53
-10 7 -5 12 -3 12 3 0 6 5 8 13 3 6 -4 92 -8 189 -9 97 -1 181 -5 187 -8 6 -4
11 -4 11 1 0 4 69 8 153 7 83 0 160 3 171 9 14 7 16 6 11 -4 -5 -7 -4 -10 3
-5 17 11 72 14 78 5 3 -5 9 -7 14 -4 21 13 80 15 80 2 0 -9 2 -9 8 0 4 7 30
11 63 11 31 -1 61 2 67 6 7 4 12 1 12 -6 0 -9 3 -9 8 -2 4 6 23 10 42 9 19 -1
42 1 51 6 9 5 20 4 26 -2 8 -8 17 -7 32 0 15 8 21 9 21 1 0 -6 5 -8 12 -4 13
9 58 13 175 17 40 1 73 4 73 7 0 3 24 6 53 7 28 1 63 4 77 7 32 6 136 18 173
20 15 0 27 4 27 8 0 3 8 5 18 4 9 -2 40 2 67 9 28 6 56 10 63 7 7 -2 19 2 27
8 12 10 15 10 15 0 0 -10 3 -10 14 -1 8 6 18 11 22 10 5 -1 11 -1 14 0 3 1 26
4 51 6 26 2 60 7 75 10 16 3 47 7 69 10 81 10 105 15 175 31 14 3 39 8 55 11
47 8 60 11 60 13 0 1 11 3 25 5 14 2 36 6 50 9 14 3 34 8 45 10 25 5 127 29
175 41 8 2 15 4 15 5 0 2 23 7 55 11 14 2 27 7 30 11 3 4 17 9 30 11 14 3 63
18 110 33 47 16 90 29 95 29 6 0 16 6 23 13 8 7 18 10 23 7 5 -4 9 -2 9 3 0 5
7 9 15 10 8 1 22 3 30 4 8 1 15 5 15 10 0 4 9 8 19 8 11 0 22 4 26 9 3 5 19
12 35 16 17 4 30 10 30 14 0 4 6 8 13 9 24 2 87 27 87 34 0 5 7 8 15 8 8 0 30
9 50 20 19 11 37 20 40 20 3 1 22 8 42 17 21 9 41 16 46 15 4 -1 7 2 7 7 0 5
14 12 30 16 17 4 30 10 30 14 0 4 6 8 13 8 6 0 66 27 132 59 66 32 123 57 128
56 4 -1 7 2 7 8 0 5 7 10 15 10 8 0 15 5 15 10 0 6 9 10 20 10 11 0 20 4 20 9
0 5 14 14 30 20 17 5 30 15 30 20 0 6 3 10 8 9 4 -1 26 10 50 25 24 15 54 33
68 39 13 6 24 15 24 20 0 4 9 8 20 8 11 0 20 5 20 10 0 6 8 14 18 18 24 10
106 65 110 75 2 4 10 7 17 7 7 0 15 4 17 8 2 5 28 26 58 48 30 21 60 43 67 49
7 5 19 16 28 23 8 7 15 10 15 7 0 -3 9 3 19 13 11 9 31 26 46 37 14 11 41 34
59 50 45 41 103 87 132 105 13 8 24 21 24 29 0 8 3 12 6 8 10 -9 114 90 182
174 15 18 39 46 54 62 15 17 25 34 22 39 -3 4 1 8 9 8 8 0 22 16 33 35 10 19
21 35 25 35 3 0 11 10 16 23 9 18 122 178 151 213 5 5 22 29 37 52 15 23 32
42 36 42 5 0 8 3 7 7 -3 16 15 43 25 36 5 -3 7 -1 3 5 -3 6 1 17 9 25 8 9 15
20 15 26 0 5 8 15 18 20 9 6 13 11 9 11 -5 0 1 13 12 29 11 15 18 31 14 35 -3
3 -1 6 5 6 6 0 31 40 55 89 25 50 48 87 52 83 5 -4 5 1 2 10 -3 9 1 22 8 28 8
7 14 15 13 18 -1 4 15 42 36 84 21 42 39 83 41 90 9 37 18 58 26 58 4 0 6 9 4
20 -2 11 0 20 6 20 5 0 9 8 9 18 0 10 5 23 12 30 7 7 8 12 3 12 -4 0 0 10 11
22 10 12 13 18 7 14 -14 -8 -18 10 -4 18 4 3 12 20 16 38 4 18 9 38 11 43 2 6
6 22 9 37 3 15 10 39 15 54 6 14 8 30 4 35 -3 5 -1 9 3 9 8 0 30 64 40 115 2
11 8 24 13 29 4 4 6 15 3 22 -3 8 1 14 8 14 7 0 10 3 7 6 -4 3 -2 20 4 37 5
18 10 37 12 44 1 7 5 16 9 19 4 4 7 18 7 30 0 13 4 25 9 28 5 4 8 14 6 24 -1
9 3 28 10 42 7 14 10 30 8 37 -2 7 1 22 8 35 7 13 13 37 15 53 1 17 5 46 9 65
3 19 7 44 8 55 1 11 9 26 17 33 8 8 9 11 2 7 -9 -5 -11 0 -8 19 3 14 8 31 12
37 5 8 3 9 -7 4 -11 -7 -12 -6 -3 6 6 8 10 24 9 37 -1 12 2 22 6 22 5 0 7 13
5 30 -2 16 -1 32 2 35 7 6 8 20 16 120 3 33 5 60 6 60 1 0 4 14 5 30 8 69 28
338 28 378 0 15 4 27 8 27 9 0 6 20 -4 37 -4 6 -4 14 1 16 4 3 7 62 7 131 0
69 2 126 5 126 3 0 4 47 3 105 -1 71 2 103 9 99 7 -4 6 0 -1 14 -10 20 -8 52
5 74 4 6 3 8 -4 4 -7 -4 -9 4 -7 26 10 77 11 128 3 128 -5 0 -6 6 -1 13 10 16
10 247 0 247 -5 0 -5 6 0 13 11 16 11 29 1 49 -5 10 -4 19 2 23 6 4 8 11 4 16
-3 5 -8 40 -10 77 -7 84 -11 127 -14 127 -3 0 -9 195 -13 377 -1 84 -6 138
-12 138 -7 0 -7 3 0 8 11 7 16 52 6 52 -8 0 -6 69 2 76 3 3 1 17 -4 31 -6 18
-6 30 2 39 6 8 7 14 2 14 -5 0 -10 19 -10 43 -1 107 -7 173 -15 184 -5 6 -5
13 -1 16 7 4 9 92 3 92 -3 0 -9 74 -10 120 -1 22 -7 43 -13 47 -9 6 -9 8 0 8
11 0 9 48 -3 59 -2 2 1 10 7 18 9 10 8 13 0 13 -7 0 -11 8 -9 18 1 9 -1 23 -5
30 -5 7 -3 12 3 12 6 0 8 5 3 13 -4 6 -8 32 -9 57 0 25 -4 52 -7 60 -4 8 -9
40 -12 70 -2 30 -7 78 -10 105 -3 28 -8 66 -10 85 -2 19 -4 35 -5 35 -1 0 -3
14 -5 30 -11 90 -14 115 -20 165 -8 59 -13 85 -15 85 -2 0 -8 33 -15 80 -3 22
-8 51 -11 65 -3 14 -6 40 -7 58 -1 17 -4 32 -7 32 -3 0 -6 8 -7 18 -1 9 -4 31
-8 47 -3 17 -9 46 -12 65 -3 19 -9 42 -13 50 -4 8 -6 25 -5 38 1 12 -2 22 -6
22 -4 0 -6 8 -4 18 1 9 0 22 -4 27 -10 17 -40 139 -35 146 2 4 -3 10 -12 13
-8 3 -12 11 -8 17 3 6 2 21 -4 32 -10 22 -31 90 -36 117 -2 8 -6 22 -9 30 -3
8 -7 24 -9 35 -2 11 -6 22 -10 25 -4 3 -8 20 -10 38 -1 18 -5 32 -8 32 -3 0
-7 8 -8 18 -2 21 -10 57 -12 57 -2 0 -10 34 -13 60 -2 11 -8 29 -14 40 -11 21
-26 80 -23 91 1 4 -3 10 -9 13 -5 4 -12 18 -15 33 -2 14 -9 36 -16 47 -6 12
-8 26 -5 31 3 6 2 10 -4 10 -9 0 -14 12 -27 60 0 3 -9 23 -19 45 -10 22 -18
46 -18 53 0 6 -4 12 -8 12 -5 0 -6 7 -3 15 4 8 1 15 -5 15 -6 0 -11 8 -11 18
0 10 -6 24 -12 31 -11 11 -10 12 0 6 10 -5 10 0 -2 23 -8 16 -12 32 -9 36 4 3
1 6 -6 6 -7 0 -10 4 -6 9 3 5 0 13 -6 16 -5 4 -8 13 -5 20 3 8 -1 19 -9 25 -8
6 -12 17 -9 24 3 8 -2 16 -11 20 -9 3 -14 10 -11 15 3 5 -1 21 -9 37 -13 27
-37 83 -40 94 -7 29 -31 80 -37 80 -4 0 -5 7 -2 15 4 8 1 15 -6 15 -6 0 -8 5
-5 10 3 6 1 10 -5 10 -6 0 -8 5 -5 10 3 6 1 10 -5 10 -7 0 -10 7 -6 15 3 8 2
15 -2 15 -9 0 -37 65 -33 76 2 4 -1 10 -6 13 -16 12 -44 71 -38 81 3 6 2 10
-3 10 -4 0 -14 16 -22 35 -8 19 -18 35 -22 35 -5 0 -7 4 -3 9 3 5 -2 16 -10
24 -8 9 -15 23 -15 31 0 9 -4 16 -10 16 -5 0 -10 9 -10 20 0 11 -4 20 -8 20
-10 0 -38 70 -34 83 1 5 -2 6 -7 3 -5 -4 -12 3 -16 14 -3 11 -12 20 -18 20 -7
0 -6 4 3 10 10 7 11 10 2 10 -7 0 -20 17 -30 38 -9 20 -19 39 -22 42 -6 6 -27
43 -54 95 -12 22 -27 46 -33 53 -7 7 -13 17 -13 22 0 5 -6 15 -14 22 -7 8 -20
27 -29 43 -9 17 -27 42 -41 57 -14 15 -26 31 -26 35 0 5 -9 15 -20 23 -11 8
-20 20 -20 28 0 7 -4 10 -10 7 -5 -3 -10 0 -10 8 0 8 -7 18 -16 21 -8 3 -12
10 -9 16 3 5 -1 10 -10 10 -8 0 -18 7 -22 15 -8 22 -92 105 -105 105 -6 0 -9
3 -6 6 7 7 -39 54 -53 54 -6 0 -7 5 -4 10 3 6 1 10 -5 10 -6 0 -29 18 -52 41
-22 22 -56 50 -74 63 -19 13 -31 26 -27 29 3 4 -1 7 -10 7 -9 0 -22 9 -30 20
-8 11 -17 17 -20 14 -4 -4 -9 1 -13 10 -3 9 -10 13 -15 10 -5 -3 -9 3 -9 12 0
10 -3 15 -6 11 -6 -6 -76 41 -82 56 -2 4 -8 5 -13 1 -5 -3 -12 2 -15 10 -3 9
-15 16 -25 16 -10 0 -19 5 -19 11 0 5 -4 7 -10 4 -5 -3 -10 -2 -10 2 0 9 -12
16 -79 48 -22 11 -41 23 -41 27 0 5 -9 8 -20 8 -11 0 -20 4 -20 8 0 7 -59 34
-69 31 -2 0 -7 3 -10 8 -7 9 -76 45 -88 46 -4 0 -13 7 -19 15 -6 8 -16 12 -22
8 -7 -4 -12 -2 -12 3 0 6 -3 10 -7 9 -5 -1 -21 4 -38 11 -16 7 -32 12 -35 13
-3 0 -19 6 -37 13 -17 7 -34 11 -37 7 -3 -3 -6 0 -6 7 0 7 -5 9 -10 6 -6 -4
-18 -1 -27 7 -14 11 -16 11 -8 -1 6 -11 5 -12 -6 -5 -8 5 -25 10 -39 11 -14 2
-37 5 -52 8 -15 2 -30 0 -33 -5 -4 -6 -12 -7 -18 -3 -12 7 -54 12 -59 7z m12
-419 c25 -1 45 -4 45 -5 0 -1 16 -3 35 -4 19 -1 41 -5 48 -9 6 -5 16 -6 21 -2
5 3 12 1 16 -5 4 -6 11 -8 16 -5 5 4 15 3 22 -2 6 -4 17 -8 22 -9 41 -8 111
-30 116 -38 4 -5 12 -5 18 -2 6 4 11 2 11 -4 0 -7 7 -10 15 -6 8 3 15 2 15 -3
0 -5 20 -15 44 -22 25 -7 42 -17 40 -21 -3 -4 4 -8 15 -8 11 0 26 -7 34 -15 8
-8 17 -11 21 -8 3 4 6 1 6 -5 0 -7 7 -12 15 -12 8 0 24 -9 35 -20 11 -11 20
-17 20 -14 0 4 6 1 13 -5 8 -6 18 -7 22 -3 5 4 5 2 2 -4 -3 -6 6 -17 21 -25
15 -8 32 -18 38 -24 30 -26 55 -45 59 -45 6 0 54 -40 74 -62 8 -10 21 -18 29
-18 7 0 11 -4 8 -9 -3 -5 4 -15 17 -24 25 -16 211 -197 203 -197 -3 0 7 -13
22 -29 15 -15 31 -26 36 -23 5 3 6 0 3 -5 -4 -6 6 -25 22 -43 45 -50 52 -60
46 -60 -3 0 3 -8 13 -18 11 -11 25 -33 33 -50 8 -18 17 -32 21 -32 5 0 8 -7 8
-15 0 -8 3 -15 8 -15 8 0 38 -61 34 -72 -1 -5 4 -8 11 -8 8 0 14 -6 14 -13 0
-6 11 -31 26 -53 14 -23 23 -45 20 -48 -4 -3 -1 -6 6 -6 7 0 9 -4 6 -10 -3 -5
-1 -10 4 -10 6 0 11 -5 11 -10 0 -6 11 -28 24 -49 14 -21 22 -42 19 -45 -4 -3
-1 -6 5 -6 7 0 12 -9 12 -21 0 -11 5 -17 10 -14 6 3 10 -3 10 -14 0 -12 5 -21
10 -21 6 0 9 -3 9 -7 -4 -23 2 -43 11 -38 6 3 10 -3 10 -14 0 -11 5 -23 10
-26 6 -3 10 -17 10 -31 0 -14 3 -23 8 -20 4 2 12 -7 19 -20 6 -14 7 -21 1 -18
-6 4 -3 -5 6 -19 9 -13 19 -35 21 -48 3 -12 8 -25 12 -28 15 -11 43 -72 30
-65 -6 4 -4 -2 6 -13 9 -11 17 -27 17 -36 0 -9 5 -17 10 -17 6 0 10 -11 10
-25 0 -14 5 -25 10 -25 6 0 10 -7 10 -15 0 -8 9 -34 19 -58 20 -43 56 -138 56
-147 0 -3 5 -18 12 -35 22 -60 26 -70 29 -87 2 -10 5 -23 6 -30 2 -7 6 -16 10
-19 5 -3 9 -17 10 -32 1 -15 7 -27 12 -27 5 0 7 -3 3 -6 -3 -3 1 -23 8 -45 8
-21 12 -39 9 -39 -3 0 -2 -6 3 -12 4 -7 8 -16 9 -20 1 -5 3 -10 4 -13 1 -3 4
-9 5 -15 1 -5 3 -11 5 -12 2 -4 10 -39 15 -65 2 -12 7 -28 11 -35 9 -14 15
-34 16 -58 1 -8 5 -17 9 -20 5 -3 9 -20 11 -38 1 -18 6 -32 11 -32 4 0 6 -4 2
-9 -3 -5 -1 -12 5 -16 6 -4 8 -10 5 -15 -2 -4 4 -33 14 -64 10 -31 13 -53 7
-49 -6 4 -5 -1 3 -10 8 -10 11 -20 8 -24 -4 -3 -2 -12 5 -20 6 -7 8 -16 5 -19
-3 -3 1 -23 8 -44 7 -21 11 -41 8 -44 -3 -3 -1 -11 4 -18 10 -13 12 -23 16
-77 1 -16 4 -29 7 -29 19 1 23 -4 10 -12 -13 -8 -13 -11 -1 -19 7 -5 10 -14 7
-20 -4 -6 -3 -11 1 -11 5 0 10 -9 11 -20 4 -43 6 -50 12 -50 4 0 6 -10 6 -22
-1 -13 5 -32 13 -42 14 -17 14 -18 1 -11 -12 7 -13 6 -3 -6 11 -13 23 -55 25
-86 1 -7 5 -13 9 -13 5 0 6 -7 3 -15 -4 -8 -2 -15 3 -15 5 0 10 -13 11 -29 1
-16 9 -45 17 -64 8 -19 11 -37 8 -40 -3 -4 0 -13 6 -21 7 -8 10 -20 7 -25 -4
-5 -2 -12 3 -16 6 -3 8 -12 4 -20 -3 -8 -1 -15 3 -15 5 0 10 -12 10 -27 2 -43
9 -97 15 -108 3 -6 6 -26 8 -45 2 -19 8 -38 15 -42 8 -6 7 -8 -2 -8 -9 0 -10
-5 -3 -18 6 -11 10 -27 10 -38 2 -70 7 -124 12 -124 3 0 6 -12 6 -27 1 -16 4
-53 8 -83 4 -30 8 -64 9 -75 1 -11 5 -26 9 -32 5 -8 4 -13 -2 -13 -7 0 -7 -8
-2 -22 4 -13 7 -33 6 -46 -1 -13 2 -25 7 -28 4 -3 8 -10 8 -15 0 -6 -5 -7 -11
-3 -8 5 -8 1 0 -13 7 -14 7 -24 -2 -33 -9 -10 -9 -11 0 -6 9 5 12 -1 9 -23 -2
-17 -1 -31 3 -31 3 0 6 -28 6 -63 0 -34 3 -74 7 -89 4 -18 3 -28 -4 -28 -7 0
-7 -4 0 -12 5 -7 10 -31 10 -53 0 -96 5 -156 13 -161 5 -3 6 -11 2 -17 -10
-16 -10 -117 -1 -117 4 0 3 -11 -2 -25 -5 -14 -6 -25 -2 -25 4 0 8 -19 9 -42
0 -24 3 -77 7 -118 12 -137 18 -263 19 -417 1 -94 6 -153 12 -153 7 0 7 -3 0
-8 -13 -9 -14 -112 -1 -112 6 0 5 -5 -2 -12 -8 -8 -9 -15 -1 -25 7 -7 7 -13 2
-13 -5 0 -10 -7 -10 -15 0 -8 4 -15 9 -15 5 0 4 -10 -3 -21 -8 -15 -8 -19 0
-15 8 5 8 0 3 -16 -7 -20 -8 -43 -2 -50 6 -9 5 -50 -2 -54 -4 -3 -5 -10 -2
-16 8 -13 16 -130 18 -255 0 -51 5 -93 9 -93 5 0 5 -6 0 -12 -13 -22 -14 -50
-1 -42 8 5 8 3 2 -7 -5 -8 -10 -36 -11 -64 -3 -64 -10 -140 -12 -140 -1 0 -4
-29 -7 -65 -2 -36 -6 -81 -8 -100 -3 -19 -7 -66 -11 -105 -3 -38 -10 -75 -16
-81 -5 -6 -6 -14 -2 -18 9 -8 12 -46 4 -46 -3 0 -7 -21 -7 -48 -3 -89 -10
-158 -18 -171 -5 -8 -4 -16 4 -21 7 -4 8 -10 3 -13 -6 -4 -11 -21 -12 -39 -4
-51 -9 -93 -11 -93 -1 0 -3 -12 -4 -26 -2 -14 -6 -31 -10 -37 -4 -7 -2 -12 6
-12 9 0 9 -3 2 -8 -6 -4 -11 -14 -12 -22 0 -8 -3 -26 -6 -40 -3 -13 -7 -39 -8
-57 -1 -18 -5 -33 -8 -33 -3 0 -7 -17 -8 -37 -2 -20 -8 -43 -14 -50 -8 -10 -7
-13 3 -13 9 0 10 -3 4 -8 -5 -4 -12 -18 -13 -32 -2 -14 -7 -29 -11 -35 -4 -5
-8 -23 -9 -39 -1 -16 -7 -35 -13 -42 -6 -7 -8 -18 -4 -24 3 -5 1 -10 -5 -10
-6 0 -9 -4 -5 -10 3 -5 1 -17 -4 -27 -10 -18 -45 -121 -46 -135 0 -3 -3 -10
-7 -14 -5 -4 -8 -16 -8 -26 0 -10 -4 -18 -8 -18 -5 0 -9 -7 -10 -15 -1 -8 -3
-22 -4 -30 -1 -8 -5 -15 -10 -15 -4 0 -7 -3 -6 -7 1 -9 -9 -40 -23 -66 -5 -10
-7 -22 -4 -27 3 -4 0 -10 -5 -12 -6 -2 -13 -16 -16 -33 -3 -16 -10 -35 -15
-41 -5 -7 -12 -23 -14 -35 -3 -13 -9 -25 -15 -27 -6 -2 -7 -8 -4 -13 3 -6 0
-16 -6 -24 -7 -8 -9 -15 -5 -15 5 0 0 -10 -11 -22 -12 -13 -13 -18 -4 -13 12
7 12 5 -1 -11 -9 -10 -22 -36 -29 -57 -6 -20 -16 -35 -21 -32 -5 4 -6 -1 -3
-9 3 -9 1 -16 -5 -16 -6 0 -11 -6 -11 -12 0 -7 -6 -24 -14 -38 -30 -57 -59
-107 -82 -145 -13 -22 -27 -47 -31 -55 -4 -8 -22 -36 -40 -62 -18 -27 -30 -48
-26 -48 5 0 0 -5 -9 -11 -10 -5 -18 -14 -18 -20 0 -11 -41 -72 -53 -77 -4 -2
-5 -8 -1 -13 3 -5 1 -9 -4 -9 -11 0 -87 -112 -84 -123 1 -5 -1 -6 -6 -3 -5 3
-17 -9 -27 -27 -10 -18 -24 -36 -32 -40 -7 -4 -13 -12 -13 -18 0 -10 -9 -22
-40 -56 -8 -9 -15 -20 -15 -25 0 -5 -7 -13 -15 -18 -8 -5 -15 -15 -15 -22 -1
-7 -6 -12 -13 -10 -7 1 -12 -3 -12 -9 0 -7 -13 -25 -30 -40 -16 -16 -27 -29
-24 -29 3 0 -6 -11 -20 -24 -15 -13 -26 -28 -26 -35 0 -6 -5 -11 -11 -11 -6 0
-39 -28 -73 -62 -34 -35 -72 -69 -83 -77 -12 -8 -19 -19 -16 -24 3 -6 2 -7 -4
-4 -5 4 -21 -4 -34 -16 -13 -12 -27 -21 -31 -19 -5 1 -8 -2 -8 -8 0 -5 -6 -10
-13 -10 -7 0 -20 -8 -29 -18 -25 -26 -46 -42 -56 -42 -5 0 -17 -9 -27 -20 -10
-11 -20 -18 -22 -16 -2 2 -16 -7 -30 -20 -14 -13 -30 -24 -36 -24 -5 0 -15 -7
-21 -14 -6 -8 -18 -16 -26 -18 -20 -4 -39 -21 -33 -31 2 -4 1 -7 -4 -6 -21 4
-34 -2 -27 -13 4 -6 3 -8 -4 -4 -6 3 -17 0 -25 -8 -8 -8 -17 -13 -19 -10 -3 2
-11 -2 -18 -11 -7 -8 -19 -15 -26 -15 -8 0 -14 -5 -14 -12 0 -6 -3 -9 -6 -5
-3 3 -15 -3 -27 -14 -19 -17 -38 -24 -60 -20 -5 1 -6 -3 -3 -8 4 -5 -4 -13
-16 -17 -12 -3 -28 -13 -36 -20 -7 -8 -20 -14 -28 -14 -8 0 -14 -5 -14 -10 0
-6 -3 -9 -7 -8 -16 3 -43 -15 -36 -25 3 -5 1 -7 -4 -4 -13 8 -73 -21 -73 -34
0 -6 -5 -7 -11 -3 -6 3 -14 3 -18 -2 -9 -13 -244 -129 -258 -128 -7 1 -11 -3
-10 -9 1 -6 -2 -12 -8 -12 -30 -4 -65 -18 -65 -27 0 -5 -4 -7 -9 -3 -6 3 -14
-3 -20 -12 -6 -11 -11 -13 -11 -5 0 10 -4 9 -16 -2 -8 -9 -20 -14 -25 -11 -5
4 -9 1 -9 -5 0 -7 -6 -10 -12 -8 -7 3 -19 -2 -27 -9 -7 -8 -26 -17 -42 -20
-16 -3 -29 -9 -29 -14 0 -5 -8 -9 -18 -9 -10 0 -22 -3 -26 -7 -4 -5 -11 -8
-14 -9 -11 -1 -66 -23 -84 -34 -10 -6 -22 -10 -27 -10 -5 0 -22 -5 -38 -12
-15 -6 -31 -11 -35 -10 -5 1 -8 -2 -8 -7 0 -5 -8 -8 -17 -6 -10 1 -26 -4 -35
-13 -10 -8 -18 -10 -18 -4 0 6 -11 5 -30 -5 -17 -8 -39 -16 -48 -18 -9 -2 -17
-4 -17 -5 0 -3 -39 -12 -57 -13 -10 -1 -18 -5 -18 -10 0 -4 -5 -5 -10 -2 -6 4
-16 3 -23 -2 -7 -5 -21 -9 -32 -9 -11 1 -26 -4 -32 -11 -7 -6 -24 -10 -38 -9
-14 2 -25 0 -25 -4 0 -5 -13 -7 -30 -6 -16 1 -31 -2 -32 -6 -4 -11 -74 -26
-135 -31 -13 0 -23 -4 -23 -7 0 -4 -6 -7 -12 -7 -7 -1 -31 -4 -53 -8 -22 -3
-49 -7 -60 -8 -11 -2 -24 -5 -30 -9 -5 -3 -18 -4 -27 -3 -10 2 -18 0 -18 -3 0
-4 -12 -8 -28 -9 -42 -4 -61 -8 -68 -16 -4 -3 -16 -2 -27 4 -14 8 -18 8 -13 0
5 -7 -4 -11 -23 -11 -39 0 -41 0 -70 -12 -17 -6 -27 -5 -33 4 -6 10 -8 9 -8
-4 0 -10 -5 -15 -13 -12 -8 3 -26 0 -41 -6 -19 -7 -25 -7 -20 1 4 8 1 8 -12 1
-11 -6 -37 -11 -59 -13 -22 -1 -46 -7 -52 -12 -9 -6 -13 -5 -13 2 0 8 -5 9
-18 2 -13 -7 -23 -6 -32 2 -10 9 -11 9 -6 0 5 -9 -2 -13 -23 -13 -41 0 -43 0
-63 -11 -10 -5 -19 -5 -23 0 -3 6 -17 6 -35 1 -17 -5 -39 -7 -50 -5 -11 2 -22
-1 -26 -7 -4 -6 -10 -5 -15 3 -5 8 -9 10 -9 4 0 -5 -21 -10 -48 -9 -26 0 -53
-4 -61 -10 -12 -9 -13 -8 -6 4 7 13 6 13 -7 2 -11 -9 -18 -10 -23 -2 -3 6 -12
7 -18 3 -7 -4 -39 -8 -72 -9 -62 -2 -234 -10 -440 -20 -190 -10 -445 -10 -445
0 0 5 -6 3 -13 -3 -8 -6 -16 -9 -19 -6 -2 2 -44 7 -94 9 -182 10 -360 19 -386
20 -16 1 -28 3 -28 6 0 3 -12 6 -27 6 -52 2 -128 13 -160 23 -18 5 -33 7 -33
5 0 -3 -6 -2 -12 3 -7 4 -20 8 -28 8 -8 0 -19 3 -25 6 -5 4 -18 5 -27 4 -10
-2 -18 2 -18 8 0 5 -2 8 -5 5 -3 -3 -40 3 -82 13 -42 10 -80 16 -85 13 -4 -3
-8 0 -8 5 0 6 -13 11 -29 11 -17 0 -32 4 -35 8 -2 4 -19 9 -38 10 -18 2 -34 7
-36 12 -2 5 -10 6 -18 3 -8 -3 -25 2 -39 11 -15 10 -26 12 -30 6 -4 -6 -12 -4
-21 4 -8 9 -21 13 -29 10 -8 -4 -15 -2 -15 4 0 6 -9 8 -20 5 -12 -3 -20 0 -20
6 0 7 -4 9 -10 6 -5 -3 -16 -3 -22 2 -15 9 -35 14 -60 16 -10 1 -18 5 -18 9 0
4 -11 8 -25 8 -14 0 -25 4 -25 9 0 5 -6 9 -12 8 -40 -1 -59 4 -52 15 4 6 3 8
-3 5 -10 -6 -106 17 -128 31 -5 4 -19 8 -30 9 -10 2 -22 8 -26 14 -3 6 -9 10
-13 10 -26 -4 -36 0 -30 12 6 9 4 9 -8 -1 -13 -10 -17 -10 -21 2 -3 8 -19 17
-36 21 -17 4 -31 11 -31 15 0 5 -7 7 -15 4 -8 -4 -15 -1 -15 6 0 6 -5 8 -10 5
-6 -3 -10 -1 -10 4 0 6 -6 11 -14 11 -18 0 -128 59 -138 74 -4 6 -8 8 -8 4 0
-9 -82 32 -91 45 -3 4 -12 9 -20 11 -8 1 -25 9 -39 18 -104 66 -142 88 -151
88 -6 0 -7 5 -4 10 3 6 0 10 -8 10 -7 0 -23 9 -35 20 -12 11 -24 20 -27 20 -3
0 -18 11 -32 24 -15 14 -30 23 -35 20 -5 -3 -7 -1 -6 4 2 6 0 10 -4 11 -5 1
-30 23 -57 50 -27 27 -52 47 -55 43 -3 -3 -6 2 -6 11 0 10 -7 17 -16 17 -8 0
-13 4 -10 8 3 5 -6 15 -19 22 -13 7 -22 16 -20 20 3 5 -2 11 -11 14 -8 3 -12
11 -9 16 4 6 2 9 -4 8 -13 -4 -71 62 -71 80 0 6 -5 11 -11 10 -6 -2 -16 6 -22
16 -7 11 -19 27 -27 37 -46 53 -57 69 -51 74 3 4 -2 11 -12 16 -9 6 -17 16
-17 24 0 7 -4 15 -9 17 -5 1 -11 10 -13 18 -2 8 -11 22 -20 31 -10 9 -15 19
-11 23 3 3 0 6 -7 6 -7 0 -10 3 -7 7 4 3 -4 21 -18 38 -13 18 -21 35 -18 39 4
3 1 6 -6 6 -7 0 -10 4 -6 9 3 5 -2 16 -10 24 -8 9 -15 20 -15 26 0 6 -5 11
-10 11 -6 0 -9 3 -8 8 4 12 -24 72 -34 72 -6 0 -8 6 -5 14 3 7 -6 31 -20 51
-14 21 -20 34 -13 30 7 -4 4 5 -6 20 -17 27 -24 44 -26 73 -1 6 -5 12 -9 12
-3 0 -10 10 -14 22 -4 13 -8 26 -10 31 -6 18 -7 22 -6 30 0 4 -4 7 -10 7 -6 0
-8 7 -5 15 3 9 0 18 -8 21 -7 3 -12 15 -11 27 1 12 -5 32 -12 45 -8 12 -11 27
-8 32 3 6 1 10 -5 10 -6 0 -8 4 -5 10 3 6 1 10 -4 10 -6 0 -11 11 -11 25 0 14
-7 37 -16 50 -9 14 -12 25 -6 25 7 0 5 11 -4 27 -7 16 -14 36 -14 45 0 9 -4
19 -9 23 -6 3 -10 13 -9 23 0 18 -1 22 -25 117 -9 33 -18 71 -21 85 -2 14 -8
34 -12 44 -6 15 -4 17 7 11 11 -6 12 -5 2 6 -7 7 -13 22 -13 34 0 12 -5 26
-12 33 -9 9 -9 12 0 12 10 0 10 5 2 20 -6 11 -7 20 -3 20 4 0 1 5 -7 10 -8 5
-10 10 -4 10 8 0 9 11 4 35 -4 19 -6 35 -3 35 2 0 1 6 -3 12 -5 7 -9 31 -9 54
-1 22 -4 45 -6 50 -2 5 -4 26 -4 47 1 20 -1 37 -5 37 -3 0 -5 28 -5 63 1 34
-2 77 -6 95 -5 21 -3 32 5 32 7 0 7 3 1 8 -5 4 -10 46 -10 94 0 49 -4 88 -9
88 -5 0 -3 6 3 13 6 8 9 16 7 18 -8 10 -14 79 -6 74 5 -3 5 9 -1 27 -11 41
-11 41 3 32 7 -5 8 -3 3 5 -11 19 -13 234 -2 249 5 6 6 12 1 12 -12 0 -11 143
1 152 7 5 7 8 0 8 -12 0 -16 60 -3 60 5 0 5 7 -1 17 -6 11 -6 24 0 35 6 10 5
19 -1 23 -5 3 -7 11 -5 18 2 7 7 68 10 137 6 145 9 172 20 190 5 9 4 11 -3 6
-9 -5 -9 0 -2 19 6 15 8 31 4 36 -3 5 -2 9 3 9 4 0 9 15 10 33 0 17 4 46 6 62
3 17 6 36 6 43 1 7 6 10 13 6 7 -5 8 -3 3 7 -11 17 -14 49 -5 49 4 0 7 7 7 15
0 8 -5 15 -11 15 -7 0 -7 3 1 8 10 7 18 45 28 152 7 70 12 98 21 111 5 8 3 9
-6 4 -9 -6 -11 -4 -5 5 4 7 9 26 11 44 14 138 17 175 18 203 1 18 4 33 8 33 4
0 5 7 2 15 -4 8 -1 22 6 30 7 8 8 15 3 15 -10 0 -11 36 -1 46 4 3 4 13 1 22
-5 11 -3 13 6 7 10 -6 11 -3 2 14 -9 16 -9 21 0 21 6 0 9 9 6 20 -3 11 0 20 6
20 8 0 7 4 -1 12 -7 7 -8 16 -3 22 9 11 22 76 22 109 0 9 5 17 10 17 6 0 8 4
4 9 -3 5 0 31 6 58 6 26 12 55 14 63 2 8 4 15 5 15 2 0 9 30 14 60 2 11 6 27
8 35 22 67 28 89 28 103 0 9 4 17 8 17 5 0 9 7 10 15 1 8 3 22 4 30 1 8 5 15
10 15 5 0 6 5 3 10 -3 6 -2 10 4 10 5 0 8 9 6 20 -2 11 1 20 7 20 5 0 8 6 5
14 -3 8 1 17 9 20 12 5 13 10 3 27 -9 17 -8 20 1 14 10 -6 12 -1 8 19 -3 14
-1 26 4 26 5 0 4 8 -1 19 -6 10 -7 21 -4 25 3 3 1 6 -5 6 -6 0 -9 9 -7 20 2
11 -1 20 -6 20 -6 0 -7 5 -4 10 3 6 -1 10 -9 10 -9 0 -15 3 -15 8 4 21 -3 31
-16 26 -10 -4 -15 0 -15 12 0 9 -3 15 -6 11 -4 -3 -19 0 -35 8 -15 8 -38 13
-51 11 -13 -2 -29 1 -35 6 -9 7 -15 6 -19 -5 -3 -9 -12 -13 -20 -10 -8 3 -14
-1 -14 -8 0 -7 -3 -9 -6 -6 -4 4 -23 -10 -44 -31 -35 -36 -72 -104 -86 -156
-3 -14 -10 -29 -15 -32 -5 -3 -7 -10 -4 -15 4 -5 1 -9 -5 -9 -6 0 -9 -4 -6 -9
3 -5 -1 -25 -9 -44 -8 -19 -11 -37 -8 -41 4 -3 2 -6 -4 -6 -10 0 -12 -7 -15
-55 -1 -14 -5 -25 -9 -25 -4 0 -9 -15 -13 -32 -3 -18 -8 -44 -11 -58 -3 -14
-6 -31 -7 -37 -1 -7 -6 -13 -11 -13 -5 0 -4 -7 3 -15 10 -12 10 -15 0 -15 -7
0 -10 -7 -6 -15 3 -8 1 -15 -3 -15 -5 0 -8 -8 -6 -17 1 -10 0 -22 -4 -28 -7
-12 -13 -43 -14 -72 -1 -13 -3 -23 -7 -23 -3 0 -6 -12 -7 -27 -1 -16 -3 -45
-5 -65 -1 -21 -5 -38 -8 -38 -4 0 -7 -12 -8 -27 -2 -50 -9 -98 -17 -117 -6
-15 -5 -17 5 -11 10 6 11 4 4 -6 -10 -17 -12 -29 -16 -94 -2 -27 -7 -53 -13
-57 -6 -5 -5 -8 3 -8 8 0 10 -5 5 -12 -4 -7 -9 -24 -10 -38 -2 -29 -10 -105
-18 -170 -3 -25 -7 -62 -8 -82 -1 -21 -5 -38 -10 -38 -4 0 -5 -5 -2 -10 4 -6
2 -17 -5 -25 -7 -8 -7 -15 -1 -19 6 -4 6 -19 0 -41 -6 -19 -7 -40 -4 -45 6 -9
2 -12 -27 -14 -7 -1 -13 8 -14 19 0 11 -4 28 -7 38 -4 9 -10 25 -14 35 -3 9
-8 28 -10 42 -2 14 -11 33 -20 42 -13 15 -13 18 -2 18 9 0 10 3 3 8 -9 6 -36
64 -40 85 -1 4 -3 10 -4 15 -1 4 -2 10 -1 15 0 4 -4 7 -10 7 -5 0 -8 4 -4 9 3
5 1 12 -5 16 -5 3 -10 15 -10 25 0 10 -7 25 -15 33 -8 8 -16 29 -17 46 -1 17
-8 33 -15 35 -7 3 -10 12 -7 21 4 8 1 15 -7 15 -7 0 -9 3 -6 7 4 3 -1 15 -10
26 -10 11 -12 17 -6 13 9 -5 11 -2 7 8 -3 9 -10 16 -15 16 -5 0 -8 3 -7 8 2 4
-6 27 -16 52 -11 25 -20 51 -22 59 -1 8 -8 17 -14 21 -7 4 -11 10 -10 14 4 15
-12 66 -21 66 -5 0 -8 3 -7 8 3 12 -23 96 -34 109 -5 7 -7 17 -3 23 3 5 1 10
-5 10 -6 0 -10 6 -9 13 3 17 -12 67 -20 67 -3 0 -7 10 -8 23 -2 21 -9 56 -13
67 -1 3 -2 8 -1 13 0 4 -3 7 -8 7 -4 0 -8 10 -7 23 1 12 -2 25 -7 28 -5 4 -10
21 -11 38 0 17 -4 31 -9 31 -4 0 -7 6 -6 13 2 6 -3 32 -10 57 -7 25 -15 54
-17 65 -2 11 -7 31 -10 45 -3 14 -6 35 -7 48 -1 12 -5 22 -11 22 -5 0 -6 3 -3
6 3 4 2 15 -3 25 -7 12 -7 20 0 24 8 5 7 11 0 20 -10 12 -21 68 -23 113 0 6
-5 12 -10 12 -5 0 -4 7 3 15 8 9 8 15 2 15 -6 0 -11 8 -10 18 0 9 -3 33 -6 52
-4 19 -8 56 -9 82 -2 26 -6 50 -10 54 -3 4 -2 16 4 27 8 14 8 18 0 13 -7 -5
-10 3 -7 23 2 17 1 33 -2 36 -11 10 -9 45 2 45 7 0 8 3 1 8 -6 4 -11 39 -12
77 0 39 -2 118 -4 176 -1 58 1 111 5 117 4 7 3 12 -2 12 -5 0 -8 12 -6 28 2
15 4 60 6 100 1 39 6 72 11 72 4 0 5 6 1 12 -10 15 -13 48 -5 48 3 0 7 17 7
38 1 20 5 66 9 102 5 36 8 77 8 93 0 15 2 27 6 27 3 0 7 21 8 48 7 116 8 132
14 132 3 0 5 20 4 44 0 25 3 43 7 40 4 -3 5 13 3 36 -2 22 0 40 4 40 5 0 7 12
5 26 -1 15 2 37 6 50 6 16 6 24 -1 24 -6 0 -7 5 -4 10 4 6 12 7 18 4 9 -5 9
-4 0 6 -8 8 -9 20 -2 37 5 13 8 27 8 31 -1 4 -1 9 1 12 1 3 3 16 5 30 2 14 6
39 10 55 4 17 8 41 10 55 2 14 4 26 5 28 1 1 4 7 5 12 1 6 4 13 5 18 1 4 2 10
1 14 0 4 6 25 14 47 8 23 12 41 9 41 -2 0 1 10 8 23 7 12 14 33 15 46 1 13 7
27 13 31 7 4 11 9 9 11 -1 2 1 15 5 29 5 14 8 28 7 33 -1 4 3 7 7 7 5 0 9 6 9
13 1 18 7 41 14 47 13 11 37 70 26 63 -7 -3 -3 4 8 16 11 13 19 25 18 27 -4 7
9 38 23 54 12 15 14 20 14 39 0 5 7 17 16 25 9 9 17 22 18 29 1 6 8 23 16 37
8 14 13 28 12 33 -1 4 2 7 7 7 5 0 11 8 15 18 8 24 45 85 59 97 7 6 13 17 15
25 2 8 8 17 13 18 5 2 9 10 9 18 0 9 5 12 10 9 5 -3 10 0 10 7 0 7 10 25 23
40 12 14 31 39 42 54 11 15 32 41 48 58 15 17 27 36 27 43 0 7 7 10 15 7 10
-4 15 0 15 16 0 11 4 19 9 15 5 -3 12 4 16 15 4 11 11 18 16 15 5 -4 9 1 9 9
0 14 11 20 32 17 4 0 5 6 2 14 -4 8 -2 15 3 15 6 0 24 14 41 30 18 17 36 30
41 30 6 0 14 6 18 13 4 8 23 22 40 32 18 11 33 23 33 27 0 4 3 7 8 6 4 -1 17
3 30 10 12 7 22 10 22 7 0 -4 12 3 26 14 15 11 30 18 35 15 5 -3 9 0 9 6 0 6
4 9 8 6 5 -3 20 1 35 9 15 8 27 12 27 9 0 -3 6 -2 13 3 6 4 17 8 22 10 6 1 20
4 31 7 12 2 38 7 59 10 20 4 42 9 48 13 6 4 7 1 2 -6 -6 -10 -3 -11 13 -2 27
14 35 14 26 -1 -6 -10 -4 -10 7 -2 16 13 77 12 98 0 10 -7 12 -5 6 4 -5 8 -4
11 2 7 5 -3 21 -8 36 -11 15 -4 38 -8 52 -11 13 -3 35 -9 49 -15 13 -5 27 -6
30 -3 3 4 6 1 6 -5 0 -7 9 -12 20 -12 11 0 20 -5 20 -11 0 -5 4 -7 10 -4 5 3
20 -1 33 -10 13 -8 27 -12 30 -8 4 3 7 2 7 -4 0 -5 18 -18 40 -28 22 -10 40
-22 40 -27 0 -4 7 -8 15 -8 8 0 15 -4 15 -10 0 -5 7 -10 15 -10 8 0 15 -4 15
-8 0 -4 14 -16 30 -25 17 -10 30 -25 30 -34 0 -9 3 -14 6 -10 3 3 17 -5 31
-19 13 -13 29 -24 35 -24 6 0 9 -3 5 -6 -3 -3 11 -23 32 -45 21 -21 37 -40 35
-42 -2 -2 9 -17 24 -33 16 -17 27 -35 24 -42 -2 -7 1 -12 8 -12 6 0 8 -4 5
-10 -3 -5 -2 -10 3 -10 8 0 28 -34 30 -53 1 -4 8 -15 17 -23 8 -9 13 -20 10
-25 -4 -5 -1 -9 5 -9 6 0 9 -4 5 -9 -3 -5 -1 -12 5 -16 6 -4 8 -11 5 -16 -4
-5 -2 -9 3 -9 5 0 13 -10 17 -22 4 -13 8 -26 10 -30 6 -19 7 -23 6 -30 0 -5 4
-8 10 -8 5 0 8 -4 4 -9 -3 -5 -1 -12 5 -16 6 -4 8 -11 5 -16 -4 -5 -3 -9 2 -9
9 0 33 -70 33 -95 0 -9 5 -13 10 -10 6 4 10 3 8 -2 -2 -10 12 -75 21 -88 3 -5
6 -12 7 -15 1 -3 5 -20 9 -37 4 -18 10 -33 14 -33 3 0 7 -17 9 -37 1 -20 6
-39 10 -43 4 -3 8 -9 9 -15 7 -46 14 -78 27 -126 8 -30 17 -66 19 -80 2 -13 7
-31 10 -39 6 -14 11 -37 22 -100 9 -48 11 -55 16 -65 4 -5 5 -20 4 -32 -1 -13
1 -23 5 -23 3 0 6 -8 7 -17 5 -60 11 -102 17 -112 4 -6 4 -15 1 -21 -3 -5 -1
-10 6 -10 8 0 7 -5 -2 -17 -12 -14 -12 -16 0 -8 11 6 13 3 9 -13 -4 -12 -2
-22 2 -22 4 0 6 -9 3 -20 -3 -11 -1 -20 4 -20 5 0 8 -18 8 -40 0 -22 2 -40 6
-40 3 0 5 -10 4 -22 -1 -13 0 -27 4 -33 5 -10 10 -37 12 -82 1 -13 5 -23 10
-23 5 0 4 -12 -1 -26 -7 -18 -7 -23 1 -18 7 4 10 -4 9 -22 -3 -38 -1 -49 10
-80 5 -13 4 -26 -3 -34 -9 -10 -9 -11 2 -5 11 6 13 4 8 -8 -3 -9 -2 -19 2 -22
5 -3 7 -14 4 -25 -3 -13 0 -20 8 -20 9 0 10 -3 2 -11 -7 -7 -7 -22 1 -52 6
-23 11 -51 11 -62 -1 -11 2 -25 6 -30 4 -6 6 -23 5 -38 -2 -15 0 -27 4 -27 4
0 6 -10 5 -22 -1 -13 1 -30 6 -39 5 -9 3 -21 -3 -27 -9 -9 -9 -12 1 -12 9 0
12 -10 9 -30 -3 -16 -1 -30 3 -30 4 0 6 -11 4 -25 -1 -14 1 -27 5 -30 4 -2 7
-18 8 -35 0 -17 6 -37 12 -45 7 -9 8 -15 1 -19 -7 -5 -7 -15 -1 -32 6 -14 11
-45 12 -70 2 -24 6 -44 9 -44 3 0 6 -13 7 -30 1 -16 3 -43 4 -60 1 -16 4 -30
8 -30 3 0 6 -10 6 -22 1 -33 12 -89 18 -96 3 -3 0 -12 -7 -20 -10 -13 -9 -14
2 -7 11 6 13 4 8 -7 -3 -9 -3 -19 1 -23 4 -4 7 -14 8 -23 0 -9 4 -28 7 -42 4
-14 9 -39 10 -55 2 -17 7 -36 11 -43 4 -7 4 -16 1 -22 -3 -5 -2 -10 4 -10 5 0
10 -8 9 -17 0 -10 3 -29 7 -43 4 -14 7 -31 7 -37 1 -7 6 -13 11 -13 6 0 8 -3
4 -6 -3 -4 0 -22 8 -41 8 -20 15 -44 15 -54 0 -11 5 -19 10 -19 6 0 9 -3 8 -7
-1 -5 4 -21 10 -36 7 -16 12 -32 12 -36 0 -5 7 -14 15 -21 8 -7 13 -15 10 -19
-2 -4 5 -14 16 -21 10 -8 19 -21 19 -30 0 -13 1 -13 10 0 5 8 10 10 10 4 0
-13 49 -38 68 -35 6 1 12 -4 12 -11 0 -10 2 -10 9 0 11 17 21 17 32 0 5 -7 9
-8 9 -2 0 6 6 11 13 12 41 3 55 7 51 14 -5 8 12 12 31 8 6 -1 7 1 3 5 -4 4 7
20 23 36 29 28 39 46 18 33 -6 -3 -3 5 6 20 10 14 13 26 9 26 -5 0 -2 5 6 10
12 8 12 10 1 10 -11 0 -11 3 -1 15 7 8 8 15 3 15 -5 0 -10 10 -10 23 -4 55 -9
75 -18 74 -5 -1 -9 5 -10 13 0 8 -6 25 -13 38 -7 12 -10 22 -7 22 4 0 3 6 -2
13 -4 6 -9 18 -10 25 -4 19 -8 33 -23 82 -7 25 -15 54 -16 65 -5 34 -9 49 -18
64 -7 11 -6 12 5 6 11 -7 12 -6 2 6 -7 8 -14 34 -15 57 -2 23 -5 42 -9 42 -3
0 -6 19 -8 42 -1 23 -7 49 -14 57 -10 12 -9 13 2 6 11 -6 12 -5 5 6 -9 16 -12
29 -16 77 -1 17 -5 32 -8 32 -3 0 -6 10 -7 23 -5 75 -7 88 -15 93 -5 3 -4 12
3 20 7 9 8 14 1 14 -6 0 -9 15 -8 33 1 19 6 31 14 30 6 -2 12 2 12 7 0 5 3 9
8 8 4 -1 30 9 57 22 28 13 56 23 63 23 6 0 12 4 12 8 0 4 14 10 30 14 17 4 30
11 30 17 0 6 7 8 15 4 8 -3 15 -1 15 4 0 4 17 14 38 21 20 6 39 15 42 18 3 3
34 20 70 36 36 17 67 33 68 38 2 4 12 7 22 7 10 0 22 5 25 10 4 6 10 8 15 5 4
-3 11 2 14 10 3 8 9 14 13 13 4 -1 18 3 29 10 12 6 24 8 28 5 3 -3 6 -1 6 5 0
7 3 11 8 10 4 -1 24 6 46 15 21 9 42 14 47 11 5 -3 12 1 15 9 2 7 10 14 17 15
18 1 38 7 70 20 15 7 31 11 35 10 4 -1 21 4 37 11 27 12 58 19 93 23 6 1 12 4
12 8 0 4 11 6 25 5 14 -2 25 2 25 8 0 5 3 7 6 4 4 -3 15 -2 25 4 14 7 19 6 19
-3 0 -9 2 -10 8 -1 4 6 16 13 27 15 11 1 23 8 27 13 5 6 8 5 8 -4 0 -11 3 -11
15 -1 8 6 19 9 25 5 5 -3 10 -1 10 6 0 7 3 9 6 6 4 -3 16 -2 27 4 15 8 18 8
12 -1 -6 -9 -3 -9 13 -1 19 10 79 23 110 24 6 0 12 4 12 8 0 5 6 6 14 3 8 -3
30 -1 50 4 26 8 36 7 36 -1 0 -8 3 -7 9 2 8 13 80 23 164 24 20 0 37 3 37 6 0
10 105 7 112 -4 5 -7 8 -7 8 0 0 6 34 10 86 10 47 0 88 3 90 7 3 4 15 4 27 0
27 -10 58 -9 74 1 6 4 14 3 17 -2 5 -8 37 -11 163 -14 35 -1 63 -4 63 -7 0 -3
25 -6 56 -7 31 -2 62 -6 68 -10 6 -5 30 -8 53 -8 24 0 43 -3 43 -7 0 -3 9 -4
20 -1 11 3 20 1 20 -4 0 -5 10 -10 23 -10 27 -2 82 -10 82 -13 0 -2 35 -10 58
-12 9 -1 17 -5 17 -8 0 -3 10 -7 23 -7 23 -2 40 -6 67 -16 8 -3 27 -8 42 -11
15 -3 40 -11 55 -18 15 -6 37 -13 48 -15 11 -2 22 -8 23 -13 2 -6 7 -8 12 -5
10 6 70 -15 70 -24 0 -4 7 -8 15 -9 8 -1 22 -3 30 -4 8 -1 15 -5 15 -10 0 -5
5 -6 10 -3 6 3 10 1 10 -4 0 -6 9 -11 21 -11 13 0 18 -4 13 -12 -4 -7 -3 -8 4
-4 7 4 27 0 46 -9 19 -9 40 -14 45 -10 6 3 11 1 11 -4 0 -6 5 -10 12 -8 8 1
12 -17 14 -53 1 -30 3 -55 4 -55 0 0 3 -27 6 -60 2 -32 9 -64 14 -69 6 -6 10
-18 10 -27 0 -24 43 -49 84 -49 28 0 41 7 65 37 17 21 36 53 42 73 6 19 13 42
16 50 4 8 7 18 8 23 2 4 4 10 5 15 2 4 4 12 5 17 2 6 4 12 5 15 3 8 10 43 15
70 2 14 4 25 5 25 1 0 4 13 6 29 3 16 10 38 15 48 7 12 6 18 -1 18 -6 0 -8 4
-5 10 7 11 15 70 17 120 0 19 5 41 11 48 6 8 6 12 -2 12 -7 0 -9 5 -5 12 5 7
8 53 9 103 0 49 4 95 8 102 4 6 1 14 -5 17 -8 4 -9 8 -3 11 6 3 9 33 8 67 -5
202 -9 278 -13 278 -3 0 -6 15 -7 33 -2 65 -8 127 -13 127 -3 0 -6 19 -8 43
-3 55 -6 69 -15 85 -5 7 -3 12 3 12 7 0 8 6 2 18 -5 9 -10 33 -11 52 -3 43 -8
75 -10 75 -2 0 -4 17 -6 37 -1 20 -6 41 -9 47 -4 5 -2 12 4 16 7 4 7 13 -1 26
-6 11 -8 27 -5 35 3 8 0 14 -5 14 -6 0 -9 9 -6 20 3 11 1 22 -3 25 -5 3 -7 17
-4 30 2 14 1 25 -3 25 -5 0 -9 15 -10 33 -1 17 -5 43 -7 57 -9 43 -18 104 -21
140 -2 19 -4 35 -5 35 -1 0 -3 11 -5 25 -8 65 -16 139 -18 177 -2 24 -6 46
-10 49 -3 3 -3 12 0 20 3 8 0 21 -7 29 -7 8 -8 15 -3 15 10 0 10 41 -1 58 -4
7 -5 19 -2 27 3 8 1 15 -4 15 -5 0 -7 7 -4 15 4 8 1 21 -5 29 -6 7 -8 16 -4
20 10 10 13 36 4 36 -4 0 -9 21 -10 48 -3 93 -7 127 -13 137 -4 6 -3 17 2 25
5 8 4 22 -2 33 -7 15 -7 18 2 12 9 -6 9 -2 1 14 -9 16 -9 21 1 21 8 0 9 3 3 8
-14 10 -15 42 -2 42 8 0 7 4 -1 12 -7 7 -8 17 -2 28 5 9 5 22 0 30 -5 8 -4 22
1 32 7 13 6 18 -2 18 -8 0 -9 4 0 13 6 8 8 16 5 20 -3 3 -1 14 5 26 8 14 8 22
1 26 -8 5 -7 11 1 21 9 11 8 14 -2 14 -9 0 -10 3 -3 8 6 4 12 14 12 22 5 55
16 106 26 112 7 5 6 8 -4 8 -11 0 -12 2 -3 8 7 4 13 22 15 40 1 18 7 32 12 32
5 0 6 3 3 7 -4 3 -2 12 4 20 6 7 8 13 4 13 -4 0 -2 7 5 15 7 8 10 15 6 15 -4
0 5 20 19 45 13 25 24 51 22 58 -1 6 4 11 10 10 7 -2 13 0 12 5 -2 15 14 52
22 52 5 0 9 7 9 15 0 8 5 15 10 15 6 0 10 7 10 15 0 9 7 18 15 21 8 4 15 10
15 15 0 16 33 48 43 42 6 -3 7 -1 4 4 -4 6 16 33 44 60 29 26 67 62 86 80 19
18 37 33 41 34 4 0 6 5 4 11 -1 5 2 7 8 3 5 -3 13 1 16 9 3 9 13 16 21 16 8 0
11 5 8 10 -3 6 -1 10 4 10 18 0 23 3 62 42 20 20 40 34 43 31 3 -4 6 -1 6 6 0
7 4 10 9 7 4 -3 19 3 31 14 12 11 26 17 30 15 5 -3 10 -1 12 3 7 18 162 55
236 56 23 1 42 4 42 7 0 4 15 4 33 2 17 -2 52 -6 77 -8z m-7106 -6593 c3 -5
-1 -9 -9 -9 -8 0 -12 4 -9 9 3 4 7 8 9 8 2 0 6 -4 9 -8z"/>
<path d="M9830 13268 c0 -6 -7 -8 -15 -5 -8 4 -17 2 -21 -4 -3 -6 -11 -9 -18
-6 -6 2 -19 -5 -28 -15 -10 -10 -15 -18 -12 -18 3 0 -1 -7 -8 -15 -7 -8 -18
-20 -23 -27 -13 -16 -15 -108 -3 -108 5 0 7 -4 4 -9 -8 -12 22 -81 35 -81 5 0
8 -4 5 -9 -4 -5 6 -23 20 -40 14 -17 23 -31 21 -31 -3 0 7 -13 21 -28 50 -52
82 -92 82 -103 0 -5 4 -8 8 -5 5 3 15 -6 22 -19 7 -14 17 -25 22 -25 4 0 8 -7
8 -16 0 -8 5 -12 10 -9 6 3 10 -1 10 -9 0 -9 5 -16 10 -16 6 0 10 -6 10 -14 0
-8 7 -17 16 -20 9 -4 14 -9 11 -13 -4 -3 7 -18 24 -34 16 -15 29 -31 28 -34 0
-4 7 -17 17 -29 11 -12 35 -44 54 -71 19 -28 38 -52 42 -53 5 -2 6 -8 2 -13
-3 -5 2 -12 10 -15 9 -3 16 -15 16 -25 0 -11 7 -19 16 -19 8 0 13 -4 9 -9 -3
-5 2 -17 11 -25 8 -9 12 -16 7 -16 -4 0 -3 -4 3 -8 19 -12 64 -99 56 -107 -4
-5 -1 -5 6 -1 7 4 12 1 12 -8 0 -9 4 -16 9 -16 5 0 12 -11 15 -25 4 -14 11
-25 17 -25 6 0 8 -4 5 -9 -3 -5 5 -25 19 -45 13 -20 22 -36 18 -36 -3 0 2 -10
13 -22 13 -14 14 -19 4 -14 -9 5 -8 2 2 -7 10 -8 15 -17 11 -20 -3 -4 -1 -7 6
-7 7 0 10 -4 7 -9 -4 -5 -1 -11 4 -13 6 -2 12 -13 13 -26 0 -12 5 -22 9 -22 4
0 8 -9 8 -21 0 -11 5 -17 10 -14 6 3 10 -5 10 -19 0 -13 5 -26 10 -28 6 -2 12
-13 13 -26 0 -12 5 -22 10 -22 4 0 6 -4 2 -9 -3 -5 -1 -12 5 -16 6 -4 8 -11 5
-16 -4 -5 -1 -9 5 -9 6 0 9 -4 5 -9 -3 -5 -1 -12 5 -16 5 -3 10 -13 10 -22 0
-9 8 -25 18 -36 9 -11 12 -17 5 -14 -6 4 -3 -11 8 -32 10 -22 19 -49 19 -61 0
-11 5 -20 10 -20 6 0 10 -9 10 -19 0 -11 5 -23 10 -26 6 -3 10 -17 10 -31 0
-13 5 -24 10 -24 6 0 10 -8 10 -19 0 -10 8 -36 17 -57 15 -35 19 -50 27 -91 1
-7 5 -16 9 -19 4 -4 7 -18 7 -31 0 -13 4 -22 9 -19 5 4 8 -2 7 -11 -2 -10 4
-28 12 -40 12 -19 12 -23 1 -23 -9 0 -10 -3 -4 -8 15 -10 46 -93 39 -103 -3
-5 -1 -9 4 -9 10 0 22 -29 26 -64 2 -11 8 -22 14 -24 7 -2 12 -14 12 -27 0
-13 5 -27 10 -30 6 -3 10 -15 10 -26 0 -10 5 -19 12 -19 6 0 8 -3 5 -7 -4 -3
0 -17 9 -31 12 -18 12 -23 3 -17 -8 3 -5 -1 5 -9 11 -9 14 -16 7 -16 -9 0 -8
-6 3 -22 9 -12 16 -30 16 -40 0 -10 5 -18 10 -18 6 0 10 -9 10 -20 0 -18 19
-70 30 -80 5 -5 8 -16 15 -52 2 -9 8 -25 14 -36 6 -11 7 -22 4 -26 -3 -3 -2
-6 4 -6 5 0 10 -6 11 -12 1 -15 10 -53 12 -53 2 0 10 -36 12 -57 1 -10 6 -18
11 -18 4 0 5 -4 2 -10 -3 -5 -1 -10 5 -10 6 0 8 -5 5 -10 -4 -6 0 -24 9 -40
10 -21 11 -30 3 -30 -7 0 -6 -4 3 -10 8 -5 11 -10 5 -10 -5 0 -4 -5 3 -12 7
-7 12 -25 12 -40 0 -15 3 -28 8 -28 4 0 8 -12 9 -28 3 -28 10 -67 13 -67 2 0
11 -38 12 -52 1 -7 6 -13 11 -13 6 0 8 -3 4 -6 -3 -4 1 -13 9 -21 8 -8 12 -19
9 -24 -4 -5 1 -9 10 -9 9 0 14 -4 11 -9 -3 -5 4 -11 15 -14 12 -3 18 -10 15
-15 -3 -5 4 -9 17 -8 12 0 21 -3 20 -9 -1 -6 22 -10 53 -10 30 0 54 3 54 6 0
4 7 10 16 13 10 4 13 2 8 -7 -6 -9 -5 -9 8 0 8 7 18 9 22 5 4 -4 7 -2 6 3 -5
21 0 36 10 30 6 -3 13 1 16 9 3 9 11 13 18 9 6 -3 8 -3 4 2 -4 4 -2 17 4 29 7
11 13 24 14 29 1 4 3 8 4 10 1 1 3 14 4 28 2 14 6 31 10 37 3 6 2 13 -4 17 -6
3 -10 18 -9 33 0 24 -6 63 -11 70 -2 1 -4 7 -5 12 -1 6 -3 11 -5 13 -1 1 -3
13 -5 27 -2 14 -8 43 -14 65 -7 22 -13 48 -16 57 -2 9 -9 26 -15 37 -8 16 -8
21 2 21 10 0 10 2 -1 9 -8 5 -10 14 -6 21 5 8 4 11 -3 7 -6 -5 -13 9 -17 35
-4 24 -10 48 -13 53 -7 11 -12 32 -14 53 -1 6 -4 12 -8 12 -4 0 -7 6 -8 13 -5
38 -9 54 -20 73 -6 12 -8 24 -5 28 3 3 2 6 -4 6 -6 0 -16 21 -24 48 -7 26 -19
53 -26 60 -17 17 -17 36 0 26 6 -4 3 2 -7 14 -11 12 -16 22 -13 22 4 0 -2 16
-13 37 -10 20 -17 40 -14 45 3 4 2 8 -3 8 -8 0 -33 62 -35 88 -1 6 -5 12 -10
12 -5 0 -6 5 -3 10 3 6 1 10 -6 10 -7 0 -10 3 -6 6 3 4 0 19 -8 34 -8 15 -11
30 -8 34 4 3 1 6 -6 6 -7 0 -10 4 -7 8 3 5 -2 22 -10 38 -9 16 -15 31 -15 34
1 10 -21 86 -30 102 -5 10 -9 25 -9 33 0 8 -4 15 -8 15 -4 0 -9 9 -10 20 -1
11 -3 29 -4 40 -1 11 -7 20 -12 20 -5 0 -6 3 -3 7 4 3 2 12 -3 19 -6 6 -10 16
-8 20 1 5 -5 23 -15 40 -9 17 -13 34 -10 38 4 3 1 6 -6 6 -7 0 -9 5 -6 10 4 6
1 17 -5 25 -7 8 -9 15 -5 15 5 0 0 8 -9 19 -9 10 -16 22 -15 27 1 5 -1 18 -6
29 -4 11 -14 35 -21 54 -8 18 -11 38 -7 44 3 6 1 7 -5 3 -7 -4 -13 7 -18 31
-3 21 -12 45 -20 53 -7 8 -13 20 -15 25 -7 37 -33 95 -42 95 -5 0 -6 3 -4 8 3
4 -8 34 -23 67 -15 33 -26 64 -23 69 4 5 1 6 -5 2 -11 -6 -14 0 -11 20 0 4 -4
10 -11 14 -6 4 -12 16 -13 28 0 12 -3 19 -6 16 -5 -4 -31 50 -30 63 1 3 -5 9
-13 14 -7 5 -14 12 -14 16 -5 25 -17 53 -25 53 -4 0 -13 16 -20 35 -7 19 -17
35 -21 35 -4 0 -8 7 -8 15 0 8 -5 15 -12 15 -6 0 -9 3 -5 6 3 3 2 11 -4 18
-25 30 -59 88 -59 101 0 8 -7 15 -16 15 -8 0 -12 5 -9 10 3 6 1 10 -5 10 -6 0
-9 4 -6 9 3 5 -1 11 -9 15 -8 3 -15 12 -15 21 0 8 -4 15 -10 15 -5 0 -10 7
-10 15 0 8 -4 15 -10 15 -5 0 -10 4 -10 10 0 9 -19 36 -48 66 -7 8 -10 14 -5
14 4 0 1 6 -7 13 -8 7 -26 29 -40 49 -14 21 -28 38 -32 38 -5 0 -8 7 -8 16 0
8 -4 12 -10 9 -5 -3 -10 1 -10 9 0 9 -4 16 -9 16 -5 0 -11 9 -14 21 -3 12 -10
18 -16 15 -5 -4 -13 3 -16 15 -4 11 -14 29 -23 38 -65 68 -99 110 -94 115 3 3
-2 6 -11 6 -9 0 -16 4 -14 9 1 5 -15 24 -35 44 -20 19 -34 37 -31 41 4 3 -2 6
-12 6 -10 0 -26 10 -36 22 -11 11 -19 18 -19 14 0 -4 -9 -2 -20 4 -30 16 -110
29 -110 18z"/>
<path d="M3480 11973 c0 -5 -9 -10 -20 -11 -44 -4 -50 -6 -50 -14 0 -5 -4 -6
-10 -3 -5 3 -10 2 -10 -3 0 -5 -11 -14 -25 -20 -14 -6 -25 -18 -25 -27 0 -8
-3 -14 -7 -12 -5 1 -9 -1 -10 -5 -2 -5 -11 -16 -20 -27 -32 -34 -53 -65 -53
-78 0 -7 -4 -13 -9 -13 -5 0 -13 -9 -16 -20 -4 -11 -11 -17 -17 -14 -7 5 -8 2
-4 -5 5 -7 1 -20 -7 -29 -28 -33 -67 -109 -59 -117 4 -4 1 -5 -5 -1 -7 4 -13
2 -13 -3 0 -22 -2 -26 -16 -34 -8 -5 -12 -12 -9 -18 4 -5 1 -9 -6 -9 -7 0 -9
-3 -6 -6 4 -4 -2 -19 -13 -34 -11 -15 -17 -30 -13 -34 3 -3 1 -6 -6 -6 -8 0
-11 -7 -7 -15 3 -8 2 -15 -2 -15 -5 0 -14 -16 -21 -35 -7 -19 -16 -35 -20 -35
-4 0 -8 -7 -9 -15 -1 -8 -3 -22 -4 -30 -1 -8 -5 -15 -10 -15 -4 0 -8 -9 -8
-20 0 -11 -4 -20 -8 -20 -4 0 -9 -10 -9 -22 -1 -13 -7 -24 -12 -26 -5 -2 -7
-10 -4 -18 3 -8 -1 -14 -8 -14 -7 0 -10 -3 -6 -6 3 -3 -3 -26 -13 -50 -11 -24
-17 -44 -14 -44 2 0 -2 -13 -11 -30 -9 -16 -13 -30 -10 -30 3 0 -1 -16 -9 -35
-8 -19 -13 -35 -11 -35 2 0 -2 -18 -10 -40 -8 -22 -12 -40 -8 -40 3 0 0 -7 -7
-15 -7 -8 -9 -15 -5 -15 4 0 3 -6 -2 -12 -6 -7 -11 -21 -12 -30 -3 -41 -5 -48
-14 -48 -6 0 -8 -3 -5 -6 3 -3 -1 -29 -8 -57 -21 -75 -24 -87 -30 -137 -3 -25
-9 -47 -12 -50 -4 -3 -8 -18 -9 -35 -4 -81 -9 -115 -16 -115 -4 0 -3 -9 3 -20
6 -11 7 -20 2 -20 -4 0 -9 -19 -9 -42 -4 -133 -10 -216 -18 -228 -5 -8 -4 -11
1 -7 6 3 10 -21 11 -56 2 -95 7 -147 14 -147 6 0 9 -20 9 -59 0 -14 4 -27 10
-31 5 -3 11 -15 13 -25 11 -55 67 -134 99 -139 7 -1 18 -4 23 -8 6 -3 24 -5
41 -3 98 8 147 97 159 288 2 37 7 72 10 77 3 6 0 10 -7 10 -10 0 -10 2 1 9 9
6 10 11 2 15 -6 4 -8 13 -4 19 4 7 8 55 9 107 4 174 6 190 16 184 6 -4 6 1 -1
13 -6 11 -8 23 -5 26 3 3 6 19 6 36 1 17 4 31 7 31 4 0 6 12 6 26 -1 14 4 46
10 72 7 26 11 55 9 65 -1 9 0 17 4 17 6 0 24 60 38 127 2 12 8 33 14 47 5 13
6 27 3 30 -4 3 -2 6 3 6 5 0 11 12 12 26 1 15 7 33 12 40 8 8 7 14 -2 17 -11
4 -10 6 0 6 7 1 10 6 7 11 -3 6 -2 10 3 10 8 0 10 6 14 50 1 11 7 20 12 20 5
0 6 3 3 7 -4 3 -2 12 4 20 6 7 8 13 4 13 -4 0 -3 6 3 13 5 6 15 31 21 55 7 23
15 42 19 42 4 0 9 10 9 22 1 13 7 24 13 26 5 2 8 7 5 12 -3 5 11 41 32 82 20
40 38 79 39 87 2 8 9 18 16 22 7 5 9 9 4 9 -5 0 -2 8 7 18 8 9 19 29 22 44 4
16 11 26 15 23 4 -3 13 9 19 25 5 17 15 30 21 30 6 0 9 4 5 9 -3 5 2 16 10 24
8 9 15 20 15 26 0 6 5 11 11 11 5 0 7 5 4 10 -3 6 -1 10 5 10 6 0 9 4 6 8 -3
5 4 14 14 22 10 8 17 17 14 22 -3 4 -1 8 4 8 5 0 12 9 15 21 3 12 10 18 16 14
7 -3 8 0 5 9 -3 9 -2 16 4 16 10 0 25 40 26 72 1 9 4 19 8 23 4 4 3 17 -1 29
-5 11 -8 23 -8 26 0 3 -4 16 -8 30 -8 26 -55 88 -55 73 0 -4 -4 -3 -8 2 -4 6
-17 16 -29 23 -19 10 -23 10 -23 0 0 -9 -3 -8 -10 2 -5 8 -12 11 -16 7 -4 -4
-13 -2 -21 4 -7 6 -13 7 -13 2z"/>
<path d="M9102 8628 c-20 -10 -51 -33 -67 -51 -45 -48 -89 -107 -79 -107 5 0
1 -5 -8 -11 -10 -5 -18 -17 -18 -24 0 -8 -5 -15 -11 -15 -5 0 -8 -4 -5 -8 3
-5 -3 -18 -14 -30 -11 -11 -22 -32 -26 -47 -4 -15 -13 -29 -20 -32 -8 -3 -11
-9 -8 -14 3 -5 0 -9 -6 -9 -6 0 -8 -4 -5 -10 3 -5 1 -10 -5 -10 -6 0 -8 -4 -5
-10 3 -5 1 -10 -4 -10 -6 0 -10 -3 -9 -7 3 -10 -42 -96 -53 -104 -5 -3 -10
-17 -11 -32 -1 -15 -7 -28 -13 -31 -6 -2 -17 -22 -25 -45 -7 -23 -17 -41 -22
-41 -5 0 -7 -4 -3 -9 3 -5 1 -12 -5 -16 -5 -3 -10 -15 -10 -26 0 -10 -4 -19
-9 -19 -8 0 -18 -22 -26 -60 -2 -8 -9 -16 -14 -18 -6 -2 -11 -11 -11 -20 0 -9
-7 -26 -15 -36 -8 -10 -13 -22 -10 -25 2 -4 -5 -17 -15 -31 l-18 -23 -16 31
c-9 18 -13 32 -9 32 5 0 1 5 -7 10 -8 5 -15 13 -16 17 0 4 -7 22 -14 38 -7 17
-14 32 -15 35 -6 21 -31 66 -40 72 -5 4 -6 8 -1 8 4 0 1 11 -8 25 -9 14 -14
30 -11 35 3 6 2 10 -4 10 -6 0 -13 11 -17 25 -3 14 -11 25 -16 25 -5 0 -8 6
-5 13 2 6 -3 18 -12 25 -13 11 -13 12 -1 6 12 -6 12 -4 -1 12 -9 10 -33 55
-55 99 -21 44 -41 82 -44 85 -6 5 -23 35 -54 93 -11 20 -23 37 -28 37 -4 0 -8
7 -8 15 0 8 -3 15 -8 15 -4 0 -18 18 -31 39 -24 38 -95 84 -134 87 -9 1 -27
-7 -39 -17 -11 -11 -18 -19 -13 -19 4 0 2 -6 -4 -14 -7 -8 -11 -31 -10 -52 2
-40 5 -56 36 -159 9 -33 18 -62 18 -65 0 -3 11 -36 25 -75 13 -38 23 -72 22
-75 0 -3 4 -10 9 -16 5 -7 11 -20 13 -30 8 -41 11 -49 24 -62 11 -12 16 -34
13 -54 0 -5 4 -8 9 -8 6 0 10 -9 10 -19 0 -11 5 -23 10 -26 6 -4 8 -11 5 -16
-4 -5 -1 -9 4 -9 6 0 10 -3 9 -7 -1 -9 9 -40 23 -65 5 -10 9 -22 9 -28 0 -10
8 -30 68 -162 17 -38 28 -68 25 -68 -3 0 0 -7 7 -15 7 -8 9 -15 4 -15 -5 0 -2
-5 6 -10 8 -5 15 -13 15 -17 0 -4 12 -33 26 -63 14 -30 35 -75 46 -99 l20 -45
-24 -60 c-14 -34 -26 -68 -28 -76 -2 -8 -4 -16 -5 -17 -2 -2 -3 -6 -5 -10 -1
-5 -5 -16 -9 -25 -4 -9 -8 -22 -10 -30 -1 -7 -4 -17 -7 -23 -4 -5 -12 -28 -19
-50 -7 -22 -16 -44 -20 -50 -8 -11 -19 -54 -19 -69 1 -5 -4 -12 -11 -16 -6 -4
-12 -17 -13 -28 -1 -12 -5 -22 -10 -22 -4 0 -6 -4 -3 -8 2 -4 -4 -27 -14 -50
-11 -23 -16 -42 -13 -42 3 0 0 -6 -6 -13 -6 -8 -8 -17 -4 -20 3 -4 2 -7 -4 -7
-5 0 -10 -6 -11 -12 -2 -31 -13 -63 -22 -66 -6 -2 -7 -8 -4 -14 4 -5 1 -20 -4
-31 -16 -32 -42 -139 -36 -149 3 -4 1 -8 -5 -8 -6 0 -8 -7 -5 -15 4 -8 1 -15
-6 -15 -6 0 -9 -4 -6 -9 4 -5 2 -20 -3 -34 -5 -13 -12 -37 -15 -53 -10 -55
-16 -89 -23 -119 -9 -38 -10 -43 -13 -52 -1 -5 -2 -12 -1 -17 1 -4 -2 -13 -7
-20 -4 -6 -7 -21 -6 -33 0 -13 -3 -23 -8 -23 -5 0 -7 -4 -4 -9 4 -5 0 -37 -8
-70 -8 -34 -15 -64 -15 -66 -1 -3 -1 -6 -2 -7 -2 -7 -8 -40 -13 -75 -3 -21 -8
-49 -10 -63 -5 -27 -16 -92 -21 -125 -2 -11 -6 -33 -10 -50 -3 -16 -9 -46 -12
-65 -3 -19 -8 -37 -12 -40 -3 -3 -6 -16 -6 -30 0 -14 -4 -31 -9 -37 -4 -7 -5
-13 -2 -13 4 0 2 -9 -4 -20 -8 -14 -8 -20 0 -20 6 0 8 -5 3 -12 -10 -17 -13
-34 -17 -93 -2 -27 -5 -52 -6 -55 -1 -3 -1 -9 0 -15 1 -5 4 -33 5 -61 3 -57
22 -124 36 -124 5 0 8 -5 6 -11 -1 -6 7 -16 18 -22 11 -7 26 -19 33 -27 12
-13 13 -13 6 0 -6 12 -4 13 7 3 7 -7 23 -13 36 -13 37 0 102 30 108 51 4 11
11 17 16 13 5 -3 9 -2 8 3 -1 4 3 22 10 38 7 17 14 41 16 55 2 14 4 26 6 28 1
1 2 14 3 30 1 15 5 33 9 40 5 7 4 12 -3 12 -6 0 -8 5 -5 10 7 11 11 32 19 90
2 19 8 49 12 65 3 17 6 38 6 48 0 9 3 17 8 17 5 0 7 9 5 20 -2 11 1 20 7 20 7
0 6 6 -2 15 -7 8 -8 15 -3 15 8 0 14 24 38 145 2 11 6 36 9 55 10 62 17 93 23
103 3 6 7 24 9 41 1 17 6 45 9 61 4 17 7 38 7 48 -1 9 3 17 8 17 4 0 7 8 5 18
-1 9 0 22 4 27 3 6 6 15 7 20 8 51 16 86 24 120 6 22 13 51 16 65 9 42 30 127
38 155 2 6 7 29 11 53 4 23 12 42 18 42 6 0 8 3 5 6 -3 3 5 34 18 70 12 35 20
64 17 64 -3 0 0 6 6 13 6 8 8 17 4 20 -3 4 0 7 7 7 7 0 10 3 7 7 -4 3 -2 12 4
20 6 7 8 13 5 13 -4 0 -1 10 6 23 7 12 11 25 10 30 -1 4 3 7 9 7 5 0 7 4 4 10
-3 5 1 23 10 40 8 16 13 30 10 30 -3 0 1 14 10 30 9 17 18 30 21 30 3 0 3 -4
0 -8 -2 -4 11 -41 30 -81 19 -40 34 -77 34 -82 0 -5 5 -9 12 -9 6 0 9 -3 6 -6
-4 -3 5 -31 18 -62 33 -77 40 -91 57 -132 23 -53 55 -134 55 -143 1 -4 8 -22
15 -40 18 -41 66 -159 72 -177 2 -7 24 -61 32 -80 3 -8 7 -18 8 -22 2 -5 4
-11 5 -15 2 -5 4 -12 4 -18 1 -5 7 -19 13 -30 6 -11 12 -23 12 -27 5 -27 53
-151 63 -162 4 -6 8 -19 8 -31 0 -12 4 -25 9 -31 10 -11 36 -86 33 -96 -1 -5
3 -8 9 -8 5 0 8 -4 4 -9 -3 -5 -1 -12 5 -16 6 -4 8 -10 5 -15 -3 -5 -1 -11 5
-15 6 -4 8 -10 5 -15 -3 -5 -1 -11 4 -15 6 -3 8 -12 5 -19 -3 -8 -1 -17 5 -21
6 -3 11 -16 11 -29 0 -12 3 -26 7 -30 4 -3 8 -14 10 -24 9 -54 11 -67 13 -67
2 0 5 -14 14 -54 3 -12 10 -29 16 -35 5 -7 7 -16 3 -19 -3 -4 -1 -7 5 -7 7 0
12 -5 12 -10 0 -19 48 -60 72 -63 13 -1 26 -6 29 -11 4 -5 15 -5 25 -1 24 10
30 12 48 14 22 2 66 64 72 102 8 50 11 122 5 134 -3 6 -7 21 -8 35 -4 37 -18
98 -30 130 -3 8 -7 28 -9 44 -3 17 -8 32 -13 35 -5 4 -12 22 -16 41 -4 19 -13
49 -20 65 -13 29 -22 55 -23 65 -1 3 -13 32 -27 65 -15 33 -29 69 -31 79 -2
11 -9 23 -16 28 -7 4 -10 8 -5 8 4 0 1 13 -7 29 -9 16 -12 31 -9 35 4 3 0 6
-7 6 -7 0 -11 3 -7 6 3 4 -1 13 -9 21 -8 8 -12 19 -8 24 3 6 -2 21 -11 35 -9
14 -18 33 -20 42 -2 9 -11 35 -21 57 -10 22 -19 46 -20 53 -1 8 -6 21 -10 30
-4 9 -8 19 -9 22 -12 35 -19 51 -35 83 -10 20 -14 34 -8 31 5 -4 3 4 -5 17 -9
13 -17 29 -18 34 -2 16 -17 51 -39 97 -11 23 -20 48 -20 55 0 7 -5 13 -11 13
-6 0 -9 9 -6 20 3 11 2 20 -1 20 -4 0 -13 15 -20 33 -7 17 -20 47 -28 65 -8
18 -12 37 -9 42 3 5 1 11 -5 15 -5 3 -10 15 -10 26 0 10 -4 19 -8 19 -5 0 -9
6 -10 13 -2 24 -8 47 -15 53 -4 4 -7 17 -7 29 0 11 -4 25 -10 31 -5 5 -11 18
-13 29 -5 23 -7 29 -60 155 l-40 95 18 50 c10 28 22 61 28 75 6 14 10 28 9 33
-1 4 3 7 10 7 6 0 9 3 6 6 -6 5 32 98 100 246 54 117 65 143 64 151 -1 4 3 7
10 7 6 0 8 3 5 6 -3 4 -1 16 5 28 7 11 13 23 14 26 0 3 7 21 15 40 7 19 12 38
11 43 -1 4 3 7 8 7 6 0 10 9 10 20 0 11 5 20 10 20 6 0 9 3 8 8 -1 8 6 30 26
77 7 17 14 35 16 40 1 6 7 19 13 30 7 11 12 25 13 30 1 6 7 26 15 45 7 19 12
39 11 44 -2 5 2 12 7 16 6 3 12 19 15 36 2 16 6 36 9 44 27 75 44 130 39 130
-4 0 -8 14 -9 31 -3 35 -19 59 -39 59 -8 0 -14 4 -14 8 0 13 -39 8 -78 -10z"/>
<path d="M6548 8562 c-16 -2 -28 -8 -28 -13 0 -6 -4 -8 -9 -5 -5 3 -25 -5 -45
-19 -20 -14 -39 -25 -42 -25 -2 0 -19 -15 -37 -32 -17 -18 -35 -32 -39 -30 -4
1 -8 -4 -8 -12 0 -8 -9 -17 -20 -21 -11 -3 -19 -10 -17 -14 1 -4 -16 -24 -37
-44 -21 -20 -36 -37 -32 -37 4 0 -12 -19 -35 -42 -23 -24 -42 -44 -41 -45 6
-9 0 -23 -7 -18 -5 3 -12 -3 -16 -14 -3 -10 -13 -28 -23 -39 -9 -11 -25 -29
-34 -40 -9 -11 -14 -23 -11 -26 4 -3 0 -6 -7 -6 -7 0 -11 -3 -8 -6 3 -3 -5
-17 -18 -31 -13 -14 -21 -29 -19 -33 3 -4 -2 -10 -10 -14 -8 -3 -15 -12 -15
-21 0 -8 -4 -15 -10 -15 -5 0 -10 -7 -10 -15 0 -8 -3 -15 -7 -15 -5 0 -17 -18
-27 -40 -11 -22 -23 -40 -28 -40 -5 0 -6 -4 -3 -10 3 -5 2 -10 -3 -10 -5 0
-15 -13 -22 -30 -7 -17 -17 -27 -24 -23 -6 3 -8 3 -4 -2 4 -4 3 -14 -3 -22 -6
-7 -8 -13 -3 -13 4 0 0 -6 -9 -12 -9 -7 -17 -20 -19 -28 -4 -21 -22 -39 -32
-32 -5 3 -6 0 -2 -7 4 -6 -2 -24 -13 -40 -11 -15 -18 -31 -14 -35 3 -3 2 -6
-4 -6 -6 0 -32 -44 -58 -97 -26 -54 -53 -101 -59 -105 -6 -4 -8 -8 -4 -8 10 0
-39 -95 -56 -110 -13 -10 -15 -8 -11 9 2 12 -1 21 -7 21 -5 0 -8 6 -5 14 3 8
-1 20 -9 27 -8 6 -13 17 -12 23 1 6 -3 21 -10 34 -7 12 -10 22 -6 22 3 0 1 7
-6 15 -7 8 -9 15 -5 15 4 0 2 6 -4 14 -6 8 -13 28 -14 45 -1 17 -5 31 -8 31
-4 0 -12 21 -19 48 -7 26 -17 53 -23 60 -5 6 -7 12 -4 12 3 0 -1 21 -9 48 -8
26 -17 54 -19 62 -2 8 -4 15 -5 15 -3 0 -11 39 -12 55 -1 8 -5 17 -9 20 -4 3
-9 17 -11 30 -2 14 -6 30 -9 35 -6 9 -18 64 -20 90 0 6 -5 16 -11 23 -6 6 -7
12 -3 12 4 0 2 7 -5 15 -7 9 -10 18 -7 22 4 3 0 15 -8 27 -8 11 -15 28 -15 38
0 10 -4 18 -10 18 -5 0 -10 5 -10 11 0 18 -49 59 -71 59 -10 0 -19 5 -19 11 0
8 -5 8 -15 -1 -10 -8 -15 -9 -15 -1 0 23 -77 -30 -97 -68 -17 -32 -20 -56 -20
-160 0 -66 3 -121 7 -121 3 0 6 -10 7 -22 4 -76 7 -98 15 -98 5 0 9 -10 8 -22
-1 -13 -1 -25 0 -28 5 -15 12 -48 13 -67 0 -13 5 -23 10 -23 5 0 7 -7 3 -15
-3 -8 -2 -15 2 -15 4 0 8 -8 9 -17 3 -48 8 -73 16 -73 5 0 7 -7 4 -15 -4 -8
-2 -17 4 -20 5 -4 9 -12 8 -18 -1 -7 1 -20 6 -30 4 -10 5 -21 1 -24 -3 -3 2
-12 12 -19 12 -10 13 -13 3 -14 -9 0 -10 -4 -4 -12 6 -7 16 -31 22 -53 7 -22
15 -47 18 -55 4 -8 7 -17 7 -20 1 -3 5 -11 9 -17 5 -7 6 -13 3 -13 -3 0 1 -15
9 -34 8 -18 11 -36 8 -40 -4 -3 -1 -6 6 -6 7 0 10 -4 6 -9 -3 -5 -1 -12 5 -16
6 -4 8 -11 5 -16 -4 -5 -1 -9 6 -9 7 0 9 -3 6 -7 -4 -3 0 -17 8 -30 9 -13 13
-23 11 -23 -3 0 2 -16 10 -35 8 -19 11 -35 7 -35 -4 0 2 -7 13 -16 10 -8 12
-12 4 -8 -10 5 -9 0 4 -14 11 -12 16 -22 11 -22 -4 0 -2 -6 4 -14 15 -18 22
-74 10 -82 -5 -3 -7 -10 -4 -15 4 -5 1 -9 -4 -9 -6 0 -10 -3 -9 -7 0 -5 -7
-26 -17 -48 -23 -52 -38 -88 -40 -97 -2 -5 -4 -10 -5 -13 -1 -3 -3 -8 -5 -12
-1 -5 -7 -21 -14 -38 -7 -16 -14 -37 -16 -45 -2 -8 -4 -16 -5 -17 -3 -4 -6
-14 -15 -50 -4 -18 -12 -33 -17 -33 -5 0 -7 -4 -4 -9 3 -5 -2 -33 -11 -62 -9
-30 -18 -57 -19 -61 -1 -5 -2 -9 -4 -10 -2 -3 -7 -31 -13 -68 -2 -11 -6 -22
-9 -26 -4 -3 -4 -12 -1 -20 3 -8 1 -14 -4 -14 -5 0 -10 -6 -10 -12 -3 -36 -16
-104 -22 -108 -3 -3 -7 -16 -8 -30 -2 -25 -7 -61 -18 -115 -4 -16 -7 -43 -8
-60 -2 -16 -6 -35 -10 -42 -4 -6 -3 -14 3 -18 6 -4 7 -13 1 -23 -10 -21 -8
-632 3 -650 4 -7 2 -12 -4 -12 -6 0 -8 -5 -5 -11 4 -6 9 -32 10 -57 2 -26 4
-47 5 -47 1 0 3 -9 5 -20 8 -50 17 -74 47 -131 18 -35 44 -69 60 -78 15 -10
28 -14 28 -10 0 3 6 2 13 -3 6 -6 25 -8 41 -6 33 5 88 42 80 55 -3 4 0 8 6 8
6 0 8 5 5 10 -3 6 -3 10 2 10 9 0 14 44 16 162 1 48 6 84 11 80 5 -3 6 1 1 8
-9 15 -13 110 -5 110 3 0 5 33 4 73 0 42 4 75 10 79 7 5 7 8 1 8 -11 0 -12
101 -1 119 4 6 3 11 -1 11 -12 0 -10 94 2 102 6 5 5 8 -3 8 -7 0 -10 4 -7 10
3 5 7 44 8 85 0 41 4 75 7 75 3 0 5 20 5 46 -1 25 2 47 7 50 5 3 6 10 3 15 -4
5 -3 14 1 21 4 7 9 28 11 48 2 19 6 42 10 50 3 8 7 22 9 30 2 8 6 31 10 50 4
19 7 43 7 53 0 9 4 17 8 17 5 0 8 3 7 8 -1 4 1 21 5 37 4 17 10 41 13 55 8 39
12 55 14 55 2 0 7 19 15 57 3 15 9 38 15 52 5 13 7 26 4 29 -2 2 2 9 9 16 12
9 17 5 28 -21 7 -18 15 -35 18 -38 3 -3 22 -36 41 -75 19 -38 37 -72 40 -75 3
-3 6 -12 8 -20 2 -8 8 -17 13 -18 5 -2 7 -8 3 -13 -3 -5 0 -9 6 -9 6 0 8 -4 5
-10 -3 -5 -1 -10 4 -10 6 0 11 -9 11 -19 0 -11 3 -21 8 -23 8 -3 44 -76 48
-96 1 -8 10 -22 18 -31 9 -10 13 -21 9 -24 -3 -4 -2 -7 4 -7 10 0 26 -36 24
-52 -1 -5 3 -8 9 -8 6 0 9 -3 8 -7 -2 -13 20 -60 31 -68 6 -3 11 -14 11 -24 0
-10 9 -30 21 -45 11 -14 18 -26 14 -26 -4 0 1 -7 9 -16 9 -8 14 -19 11 -24 -3
-5 -1 -10 3 -12 5 -1 39 -61 76 -133 37 -71 74 -137 82 -146 8 -8 14 -21 14
-27 0 -7 5 -12 10 -12 6 0 10 -5 10 -10 0 -16 154 -221 208 -276 6 -7 12 -16
12 -21 0 -4 9 -14 20 -21 11 -7 20 -19 20 -28 0 -8 5 -12 10 -9 6 3 13 -2 17
-11 11 -30 194 -205 206 -197 7 3 9 3 5 -2 -10 -10 29 -38 41 -31 5 4 11 1 13
-5 2 -5 15 -12 28 -14 14 -2 37 -6 52 -8 31 -5 87 27 90 51 0 10 2 22 3 27 2
6 4 15 5 20 1 6 2 14 1 18 -4 22 -12 73 -13 85 -1 6 -4 12 -7 12 -4 0 -15 17
-26 38 -11 20 -25 41 -32 45 -7 4 -13 12 -13 17 0 6 -14 23 -31 39 -17 16 -29
31 -28 33 3 3 -6 15 -59 76 -33 39 -38 46 -39 55 -1 5 -10 16 -20 25 -10 9
-29 34 -43 54 -14 21 -28 38 -32 38 -5 0 -8 7 -8 15 0 9 -7 18 -16 22 -8 3
-13 12 -10 19 3 8 1 14 -4 14 -5 0 -19 18 -31 40 -13 22 -27 40 -31 40 -5 0
-7 4 -4 9 3 5 -1 14 -9 21 -8 7 -15 19 -15 26 0 8 -5 14 -11 14 -5 0 -7 5 -4
10 3 6 3 10 -2 10 -4 0 -16 14 -25 31 -11 18 -13 27 -5 24 6 -4 1 3 -13 14
-14 11 -21 21 -16 21 5 0 1 10 -10 22 -12 14 -14 19 -4 13 8 -4 5 2 -7 14 -21
20 -27 34 -24 54 0 4 -3 7 -7 7 -5 0 -24 32 -43 70 -18 39 -37 70 -41 70 -5 0
-8 6 -8 13 0 12 -40 98 -51 107 -8 7 -22 44 -21 53 1 4 -3 7 -10 7 -6 0 -9 3
-5 6 3 3 -9 36 -28 72 -32 65 -77 162 -81 172 -10 35 -28 70 -35 70 -5 0 -9 8
-9 18 0 10 -7 27 -15 38 -8 12 -11 24 -8 28 3 3 1 6 -6 6 -7 0 -9 5 -6 10 3 6
0 13 -8 16 -7 2 -14 10 -14 17 -1 24 -8 41 -25 61 -10 10 -15 22 -13 27 3 4
-1 13 -8 21 -7 7 -14 15 -15 18 -15 44 -28 70 -34 70 -4 0 -8 7 -8 16 0 9 -13
40 -30 70 -16 30 -25 54 -20 54 5 0 7 7 4 15 -4 8 -2 15 3 15 5 0 15 15 21 34
13 35 121 237 131 246 4 3 17 29 30 58 14 28 28 52 33 52 4 0 7 3 6 8 -3 13
35 81 44 76 4 -3 5 2 2 10 -3 9 0 18 8 21 8 3 15 11 15 18 0 7 25 49 57 94 31
44 56 85 56 90 0 6 9 18 20 28 11 10 20 24 20 32 0 7 5 13 10 13 6 0 10 7 10
15 0 8 5 15 10 15 6 0 10 7 10 15 0 8 5 15 11 15 6 0 9 7 5 15 -3 9 0 15 10
15 8 0 12 5 9 10 -3 6 -1 10 4 10 6 0 11 7 11 15 0 9 7 18 15 21 8 4 12 10 9
15 -3 5 0 9 5 9 6 0 11 9 11 21 0 11 4 18 8 15 5 -3 19 17 32 44 13 27 27 47
32 44 4 -3 8 0 8 5 0 6 0 13 0 16 0 3 7 13 15 23 41 46 65 81 65 96 0 10 5 13
17 9 11 -4 14 -3 9 5 -4 7 -2 12 3 12 6 0 10 4 9 8 -3 9 34 63 65 94 9 10 14
18 11 18 -3 0 8 18 25 39 17 21 31 42 31 46 0 3 7 13 15 22 8 8 13 19 10 24
-4 5 -1 9 5 9 6 0 8 5 5 10 -3 6 -2 10 4 10 14 0 5 78 -11 99 -38 49 -66 60
-130 53z"/>
<path d="M9512 7701 c-29 -27 -40 -61 -32 -96 1 -5 4 -19 6 -30 2 -11 8 -40
15 -65 6 -25 12 -49 13 -55 1 -5 5 -15 9 -22 4 -6 8 -23 9 -37 1 -14 6 -26 11
-26 4 0 6 -4 3 -8 -4 -7 3 -44 20 -107 3 -11 8 -33 10 -50 2 -16 5 -39 7 -50
2 -11 6 -26 11 -33 4 -7 2 -12 -6 -12 -8 0 -9 -3 -3 -8 6 -4 10 -19 10 -34 -1
-16 2 -28 5 -28 3 0 6 -10 7 -22 0 -13 4 -52 8 -88 14 -104 12 -343 -2 -347
-7 -3 -9 -11 -6 -19 3 -8 0 -14 -7 -14 -6 0 -9 -4 -5 -9 3 -5 1 -12 -5 -16 -5
-3 -10 -15 -10 -26 0 -10 -4 -19 -10 -19 -5 0 -12 -16 -16 -35 -3 -19 -9 -33
-13 -30 -4 2 -7 -27 -7 -64 1 -51 6 -74 19 -88 9 -11 15 -22 11 -25 -3 -3 9
-12 25 -19 17 -8 31 -17 31 -22 0 -10 99 -6 106 5 3 4 9 6 14 3 10 -6 111 95
105 105 -3 5 2 10 10 13 8 4 27 25 42 49 15 24 32 46 36 49 5 3 8 9 8 13 -1 3
6 23 14 43 9 21 18 46 20 58 2 11 4 20 5 20 9 0 13 260 5 310 -8 47 -13 68
-15 75 -1 3 -2 9 -1 13 1 5 -4 27 -10 50 -12 47 -18 70 -26 107 -3 14 -10 30
-15 37 -5 7 -7 16 -4 22 3 5 2 11 -4 13 -5 1 -11 14 -14 28 -2 14 -5 27 -6 30
-2 3 -2 8 -1 13 0 4 -3 7 -9 7 -5 0 -10 6 -10 14 0 8 -5 27 -12 43 -6 15 -12
31 -13 36 -2 4 -4 10 -5 15 -1 4 -2 10 -1 15 0 4 -3 7 -7 7 -5 0 -9 6 -9 13 0
20 -51 126 -84 173 -16 23 -29 48 -29 54 0 6 -4 8 -10 5 -5 -3 -10 -1 -10 5 0
18 -63 70 -95 79 -19 5 -35 4 -44 -3 -11 -8 -13 -8 -7 2 11 19 3 15 -32 -17z"/>
<path d="M6693 7500 c-2 -3 -9 -6 -14 -6 -5 -1 -11 -3 -14 -4 -3 -1 -8 -3 -12
-5 -26 -7 -42 -18 -37 -26 3 -5 2 -9 -3 -9 -13 0 -68 -54 -71 -70 -2 -8 -8
-16 -13 -18 -5 -2 -9 -10 -9 -18 0 -8 -3 -14 -8 -14 -7 0 -32 -48 -31 -63 0
-4 -7 -15 -16 -23 -8 -9 -13 -20 -10 -25 4 -5 1 -9 -5 -9 -6 0 -8 -4 -5 -10 3
-5 2 -10 -3 -10 -5 0 -9 -6 -10 -12 0 -7 -7 -34 -15 -60 -9 -25 -13 -49 -10
-52 4 -3 2 -6 -3 -6 -5 0 -11 -10 -12 -22 -3 -35 -7 -52 -13 -63 -3 -5 -7 -28
-8 -50 -2 -22 -4 -51 -5 -65 -1 -14 -6 -31 -10 -38 -4 -7 -2 -12 4 -12 8 0 8
-6 0 -20 -8 -14 -8 -20 0 -20 6 0 8 -5 4 -12 -11 -17 -13 -48 -3 -48 4 0 3
-16 -1 -35 -4 -20 -4 -38 1 -41 5 -3 7 -9 4 -14 -3 -5 -1 -12 5 -15 8 -5 7
-11 -1 -21 -9 -11 -9 -14 1 -14 7 0 10 -6 7 -14 -3 -7 -1 -18 3 -22 5 -5 11
-18 13 -29 2 -11 11 -37 20 -59 9 -21 17 -42 17 -47 0 -5 4 -9 9 -9 5 0 11 -8
15 -17 9 -29 46 -88 51 -83 2 3 15 -10 28 -27 13 -18 27 -30 30 -26 4 3 9 -2
13 -11 3 -9 10 -14 14 -11 5 3 14 0 22 -7 18 -17 99 -46 121 -42 9 1 17 -1 17
-5 0 -5 42 -7 93 -5 112 5 117 6 112 14 -2 4 7 12 20 18 13 6 32 26 41 44 18
34 26 118 11 118 -4 0 -6 4 -3 9 3 5 -1 12 -10 15 -8 3 -12 10 -9 16 3 5 2 10
-2 10 -5 0 -20 11 -35 24 -14 14 -29 22 -32 19 -3 -4 -6 -1 -6 5 0 7 -3 11 -7
10 -5 -1 -25 6 -47 15 -21 9 -42 17 -47 17 -5 0 -9 5 -9 11 0 5 -4 8 -9 5 -18
-12 -81 82 -81 122 0 10 -5 23 -12 30 -13 13 -17 266 -5 347 15 99 24 150 27
150 2 0 3 5 13 55 8 37 22 78 45 137 16 39 19 59 12 82 -9 33 -32 61 -49 61
-6 0 -11 3 -11 8 0 8 -49 10 -57 2z"/>
</g>
</svg>
